<svg width="32" height="32" viewBox="0 0 32 32" fill="none" xmlns="http://www.w3.org/2000/svg">
<path d="M11.7488 11.625C12.072 10.706 12.7101 9.93115 13.5499 9.43756C14.3898 8.94397 15.3772 8.76354 16.3374 8.92823C17.2975 9.09292 18.1684 9.5921 18.7957 10.3374C19.4231 11.0826 19.7665 12.0258 19.765 13C19.765 15.75 15.64 17.125 15.64 17.125M15.75 22.625H15.7638M29.5 15.75C29.5 23.3439 23.3439 29.5 15.75 29.5C8.15608 29.5 2 23.3439 2 15.75C2 8.15608 8.15608 2 15.75 2C23.3439 2 29.5 8.15608 29.5 15.75Z" stroke="#F3F3F3" stroke-width="4" stroke-linecap="round" stroke-linejoin="round"/>
</svg>
