<?xml version="1.0" encoding="UTF-8"?>
<svg id="Layer_8" data-name="Layer 8" xmlns="http://www.w3.org/2000/svg" viewBox="0 0 1440 670.27">
  <defs>
    <style>
      .cls-1 {
        fill: #6698cc;
      }
    </style>
  </defs>
  <path class="cls-1" d="M111.74,569.8l1230.14.51v-12.97h0v-149.97c0-.89-6.43-4.59-7.32-9.24-1.99-10.44,2.47-28.98-.37-38.28-.83-2.7-12.49-10.35-14.04-15.42-2.58-8.45,3.11-30.62-3.04-35.66-1.6-1.32-4.95-1.06-6.03-2.2-1.15-1.22-.59-4.83-2.21-6.01-1.94-1.41-21.58-1.46-24.65-.51-4.88,1.51-3.94,10.53-14.16,7.02l-.28,39.27-14.22,11.55c-2.36,11.66,2.38,31.24-.19,41.74-.45,1.87-7.4,3.9-7.4,5.9v54.28h-14.73v-117.77c-19.43.96-13.12-1.32-12.8-13.72.24-9.14,1.41-42.19-2.13-47.79-1.28-2.04-4.84-2.38-5.35-4.2-1.4-5.08,1.45-13.84-.31-19.52-1.29-4.16-6.54-4.06-7.07-6.22-1.07-4.42.53-11.78-.4-17.6-1.53-9.56-9.87-37.85-13.46-47.36-.89-2.35.08-4.44-3.57-3.69-4.44,18.64-11.91,36.55-16.7,55.11-2.22,8.58-3.75,12.63-5.97,19.8-1.79,5.78.99,14.19-.33,19.5-.51,2.05-4.42,2.16-5.69,3.85-6.7,8.9,5.62,48.89-1.97,61.59l-10.79.25v68.09h-16.58c1.2-9.62,3.37-16.57-.14-26.19-.45-1.24-3.17-1.36-3.48-2.72-1.18-5.19,1.35-13.01-.34-17.8-.88-2.52-4.82-2.36-5.29-4.25-1.78-7.11,3.78-17.98-7.38-21.6-17.76-5.76-14.37,13.41-17.84,20.66-1.48,3.09-5.62,3.62-6.06,5.36-1.02,4.03,2.22,17.85-2.77,18.93l-4.57-2.75v-218.06l-10.25-1.72-.78-16.69-7.4.02-.77-13.03c-13.43-1.89-5.78-4.83-9.3-10.94-1.79-3.1-8.33-3.19-8.33-3.65v-38.64h-5.52v37.72l-9.14,2.83-.14,10.91-8.36,1.77c2.51,10.23-6.8,12.96-7.86,16.05-1.3,3.77.21,9.42-.27,13.54h-9.22s0,218.05,0,218.05c0,.51-1.89,4.28-3.1,4.65-18.54.43-13.65.58-13.38-11.94.26-12.38.84-25.88-1.94-37.8h-31.3l-.8,14.84-10.25,1.72v-90.16h-49.71v108.56l-12.8-.09-1.94-77.19h-78.26c-.56,0-1.41-2.33-2.76-1.84v64.4l-11.05-2.76v-183.09h-16.57v-29.44h-25.78v-64.41h-7.36v64.41h-25.78v29.44h-18.42v153.65c-4.38,5.05-12.35,2.08-18.41,2.76v-59.8c-11.66-17.86-31.38-28.83-47.23-43.04l-52.21,43.04v59.8h-14.73v85.57c0,3.76-12.89,3.76-12.89,0v-157.34c-4,.32-7.62,4.22-10.86,6.63-6.28,4.68-42.23,31.79-44,35.16-1.72,3.3-1.95,6.96-2.29,10.59-2,20.99,4.59,46.24,2,68.25-.31,2.68-.22,4.73-2.85,6.35h-34.07v52.44l-6.43,2.88-4.4-3.03,1.64-192.16h-12.9s0-45.99,0-45.99h-79.18v46l-14.73.02c-.92.66,1.84,2.35,1.84,2.74v113.17h-33.15v40.49h-12.89v-25.77h-36.83v93.85h-7.36v-154.57l-13-.81c-2.27-1.58-4.2-16.45-5.37-20.43-.78-2.67,1.06-3.21-3.71-2.68l-5.43,34.16-49.84.81-6.44-38.67-6.69,25.54-14.48.24v156.41c-2.14.75-7.37-.81-7.37-2.76v-91.09h-27.62v187.7l-.08,12.46Z"/>
</svg>