<svg width="34" height="34" viewBox="0 0 34 34" fill="none" xmlns="http://www.w3.org/2000/svg">
<path d="M16.6667 20.6667C18.8758 20.6667 20.6667 18.8758 20.6667 16.6667C20.6667 14.4575 18.8758 12.6667 16.6667 12.6667C14.4575 12.6667 12.6667 14.4575 12.6667 16.6667C12.6667 18.8758 14.4575 20.6667 16.6667 20.6667Z" stroke="#FEF7FF" stroke-width="4" stroke-linecap="round" stroke-linejoin="round"/>
<path d="M26.5333 20.6667C26.3558 21.0688 26.3029 21.5149 26.3813 21.9475C26.4598 22.38 26.6659 22.7791 26.9733 23.0933L27.0533 23.1733C27.3013 23.421 27.498 23.7151 27.6322 24.0388C27.7664 24.3626 27.8354 24.7096 27.8354 25.06C27.8354 25.4104 27.7664 25.7574 27.6322 26.0812C27.498 26.4049 27.3013 26.699 27.0533 26.9467C26.8057 27.1946 26.5116 27.3913 26.1878 27.5255C25.8641 27.6597 25.5171 27.7288 25.1667 27.7288C24.8162 27.7288 24.4692 27.6597 24.1455 27.5255C23.8218 27.3913 23.5277 27.1946 23.28 26.9467L23.2 26.8667C22.8858 26.5593 22.4866 26.3531 22.0541 26.2747C21.6216 26.1962 21.1755 26.2492 20.7733 26.4267C20.379 26.5957 20.0426 26.8763 19.8057 27.234C19.5688 27.5918 19.4417 28.0109 19.44 28.44V28.6667C19.44 29.3739 19.159 30.0522 18.6589 30.5523C18.1589 31.0524 17.4806 31.3333 16.7733 31.3333C16.0661 31.3333 15.3878 31.0524 14.8877 30.5523C14.3876 30.0522 14.1067 29.3739 14.1067 28.6667V28.5467C14.0963 28.1053 13.9535 27.6773 13.6967 27.3183C13.4399 26.9592 13.081 26.6857 12.6667 26.5333C12.2645 26.3558 11.8184 26.3029 11.3859 26.3813C10.9534 26.4598 10.5542 26.6659 10.24 26.9733L10.16 27.0533C9.91234 27.3013 9.61824 27.498 9.29451 27.6322C8.97078 27.7664 8.62377 27.8354 8.27333 27.8354C7.92289 27.8354 7.57589 27.7664 7.25216 27.6322C6.92843 27.498 6.63433 27.3013 6.38667 27.0533C6.13873 26.8057 5.94204 26.5116 5.80784 26.1878C5.67364 25.8641 5.60457 25.5171 5.60457 25.1667C5.60457 24.8162 5.67364 24.4692 5.80784 24.1455C5.94204 23.8218 6.13873 23.5277 6.38667 23.28L6.46667 23.2C6.77405 22.8858 6.98025 22.4866 7.05867 22.0541C7.1371 21.6216 7.08415 21.1755 6.90667 20.7733C6.73765 20.379 6.45701 20.0426 6.09929 19.8057C5.74157 19.5688 5.32238 19.4417 4.89333 19.44H4.66667C3.95942 19.44 3.28115 19.159 2.78105 18.6589C2.28095 18.1589 2 17.4806 2 16.7733C2 16.0661 2.28095 15.3878 2.78105 14.8877C3.28115 14.3876 3.95942 14.1067 4.66667 14.1067H4.78667C5.22799 14.0963 5.65601 13.9535 6.01507 13.6967C6.37412 13.4399 6.64762 13.081 6.8 12.6667C6.97749 12.2645 7.03043 11.8184 6.95201 11.3859C6.87358 10.9534 6.66738 10.5542 6.36 10.24L6.28 10.16C6.03206 9.91234 5.83537 9.61824 5.70117 9.29451C5.56698 8.97078 5.4979 8.62377 5.4979 8.27333C5.4979 7.92289 5.56698 7.57589 5.70117 7.25216C5.83537 6.92843 6.03206 6.63433 6.28 6.38667C6.52766 6.13873 6.82176 5.94204 7.14549 5.80784C7.46922 5.67364 7.81623 5.60457 8.16667 5.60457C8.51711 5.60457 8.86411 5.67364 9.18784 5.80784C9.51157 5.94204 9.80567 6.13873 10.0533 6.38667L10.1333 6.46667C10.4476 6.77405 10.8467 6.98025 11.2792 7.05867C11.7117 7.1371 12.1578 7.08415 12.56 6.90667H12.6667C13.061 6.73765 13.3974 6.45701 13.6343 6.09929C13.8712 5.74157 13.9983 5.32238 14 4.89333V4.66667C14 3.95942 14.281 3.28115 14.781 2.78105C15.2811 2.28095 15.9594 2 16.6667 2C17.3739 2 18.0522 2.28095 18.5523 2.78105C19.0524 3.28115 19.3333 3.95942 19.3333 4.66667V4.78667C19.335 5.21572 19.4622 5.6349 19.6991 5.99262C19.936 6.35034 20.2723 6.63098 20.6667 6.8C21.0688 6.97749 21.5149 7.03043 21.9475 6.95201C22.38 6.87358 22.7791 6.66738 23.0933 6.36L23.1733 6.28C23.421 6.03206 23.7151 5.83537 24.0388 5.70117C24.3626 5.56698 24.7096 5.4979 25.06 5.4979C25.4104 5.4979 25.7574 5.56698 26.0812 5.70117C26.4049 5.83537 26.699 6.03206 26.9467 6.28C27.1946 6.52766 27.3913 6.82176 27.5255 7.14549C27.6597 7.46922 27.7288 7.81623 27.7288 8.16667C27.7288 8.51711 27.6597 8.86411 27.5255 9.18784C27.3913 9.51157 27.1946 9.80567 26.9467 10.0533L26.8667 10.1333C26.5593 10.4476 26.3531 10.8467 26.2747 11.2792C26.1962 11.7117 26.2492 12.1578 26.4267 12.56V12.6667C26.5957 13.061 26.8763 13.3974 27.234 13.6343C27.5918 13.8712 28.0109 13.9983 28.44 14H28.6667C29.3739 14 30.0522 14.281 30.5523 14.781C31.0524 15.2811 31.3333 15.9594 31.3333 16.6667C31.3333 17.3739 31.0524 18.0522 30.5523 18.5523C30.0522 19.0524 29.3739 19.3333 28.6667 19.3333H28.5467C28.1176 19.335 27.6984 19.4622 27.3407 19.6991C26.983 19.936 26.7023 20.2723 26.5333 20.6667Z" stroke="#FEF7FF" stroke-width="4" stroke-linecap="round" stroke-linejoin="round"/>
</svg>
