<?xml version="1.0" encoding="UTF-8"?>
<svg id="Layer_3" data-name="Layer 3" xmlns="http://www.w3.org/2000/svg" viewBox="0 0 429.71 543.79">
  <defs>
    <style>
      .cls-1 {
        fill: #d3d486;
      }

      .cls-2 {
        fill: #b4b534;
      }

      .cls-3 {
        fill: #f0f0d6;
      }
    </style>
  </defs>
  <path class="cls-2" d="M88.95,217.1h251.82v227.9c0,2.21-1.79,4-4,4H92.95c-2.21,0-4-1.79-4-4v-227.9h0Z"/>
  <path class="cls-1" d="M340.69,217.1H89.02s-.62-5.11.87-8.35c12.07-26.1,110.72-145.38,110.72-145.38,3.62-4.63,8.92-6.95,14.24-6.96,5.32.02,10.62,2.34,14.24,6.96,0,0,98.65,119.28,110.72,145.38,1.49,3.24.87,8.35.87,8.35Z"/>
  <rect class="cls-3" x="138.72" y="289.31" width="53.13" height="82.51" rx="6.46" ry="6.46"/>
  <path class="cls-3" d="M246.75,289.31h36.82c5.52,0,10,4.48,10,10v149.69h-56.82v-149.69c0-5.52,4.48-10,10-10Z"/>
</svg>