<?xml version="1.0" encoding="UTF-8"?>
<svg id="Layer_13" data-name="Layer 13" xmlns="http://www.w3.org/2000/svg" viewBox="0 0 3000 900">
  <defs>
    <style>
      .cls-1 {
        fill: #5a5c1b;
      }

      .cls-2 {
        fill: #44698f;
      }

      .cls-3 {
        fill: #4f79a3;
      }

      .cls-4 {
        fill: #49412b;
      }

      .cls-5 {
        fill: #fde8d3;
      }

      .cls-6 {
        fill: #925418;
      }

      .cls-7 {
        fill: #7f8026;
      }

      .cls-8 {
        fill: #aa631c;
      }

      .cls-9 {
        fill: #314b66;
      }

      .cls-10 {
        fill: #283d52;
      }

      .cls-11 {
        fill: #6297cb;
      }

      .cls-12 {
        fill: #f5dd9b;
      }

      .cls-13 {
        fill: #6d6e21;
      }

      .cls-14 {
        fill: #613810;
      }
    </style>
  </defs>
  <g>
    <g id="night">
      <rect class="cls-6" y="-2.21" width="3000" height="897"/>
      <circle class="cls-6" cx="2162.83" cy="49.39" r="5.03"/>
      <circle class="cls-6" cx="2057.96" cy="51.52" r="5.03"/>
      <circle class="cls-6" cx="124.13" cy="79.93" r="5.03"/>
      <circle class="cls-6" cx="164.34" cy="57.37" r="9.4"/>
      <circle class="cls-6" cx="471.62" cy="296.34" r="5.03"/>
      <circle class="cls-6" cx="723.53" cy="113" r="9.4"/>
      <circle class="cls-6" cx="337.63" cy="69.88" r="5.03"/>
      <path class="cls-6" d="M1331.76,103.6c0-5.19,4.21-9.4,9.4-9.4s10.4,4.21,10.4,9.4-5.21,9.4-10.4,9.4-9.4-4.21-9.4-9.4Z"/>
      <circle class="cls-6" cx="949.03" cy="53" r="5.03"/>
      <circle class="cls-6" cx="2342.85" cy="179.86" r="5.03"/>
      <circle class="cls-6" cx="2302.65" cy="202.42" r="9.4"/>
      <circle class="cls-6" cx="1738.42" cy="134.26" r="5.03"/>
      <circle class="cls-6" cx="1777.47" cy="277.38" r="9.4"/>
      <circle class="cls-6" cx="1988.32" cy="133.63" r="5.03"/>
      <circle class="cls-6" cx="1129.82" cy="156.19" r="9.4"/>
      <circle class="cls-6" cx="1539.74" cy="246.14" r="5.03"/>
      <path class="cls-6" d="M656.99,284.43c4-3.32,9.92-2.76,13.24,1.23s3.4,10.69-.59,14.01-10.56,1.99-13.88-2-2.76-9.92,1.23-13.24Z"/>
      <circle class="cls-6" cx="262.77" cy="144.33" r="9.4"/>
      <circle class="cls-6" cx="1766.8" cy="363.31" r="5.03"/>
      <circle class="cls-6" cx="1635.14" cy="430.16" r="9.4"/>
      <path class="cls-6" d="M556.23,198.12c0-5.19,4.21-9.4,9.4-9.4s10.4,4.21,10.4,9.4-5.21,9.4-10.4,9.4-9.4-4.21-9.4-9.4Z"/>
      <circle class="cls-6" cx="929.38" cy="118.52" r="5.03"/>
      <circle class="cls-6" cx="816.69" cy="196.08" r="9.4"/>
      <circle class="cls-6" cx="730.69" cy="230.4" r="5.03"/>
      <circle class="cls-6" cx="621.99" cy="243.34" r="9.4"/>
      <circle class="cls-6" cx="2162.83" cy="49.39" r="5.03"/>
      <circle class="cls-6" cx="2144.2" cy="91.57" r="9.4"/>
      <circle class="cls-6" cx="2235.36" cy="269.86" r="5.03"/>
      <circle class="cls-6" cx="2169.84" cy="250.21" r="5.03"/>
      <circle class="cls-6" cx="2092.27" cy="137.52" r="9.4"/>
      <circle class="cls-6" cx="2057.96" cy="51.52" r="5.03"/>
      <circle class="cls-6" cx="1302.43" cy="220.16" r="5.03"/>
      <circle class="cls-6" cx="48.86" cy="293.3" r="5.03"/>
      <circle class="cls-6" cx="43.13" cy="206.1" r="9.4"/>
      <circle class="cls-6" cx="124.13" cy="250.97" r="5.03"/>
      <circle class="cls-6" cx="1481.48" cy="181.12" r="9.4"/>
      <circle class="cls-6" cx="1706.98" cy="121.12" r="5.03"/>
      <circle class="cls-6" cx="1687.33" cy="186.64" r="5.03"/>
      <circle class="cls-6" cx="1574.64" cy="264.21" r="9.4"/>
      <circle class="cls-6" cx="1488.64" cy="298.52" r="5.03"/>
      <circle class="cls-6" cx="2555.04" cy="96.54" r="5.03"/>
      <circle class="cls-6" cx="2613.09" cy="132.73" r="5.03"/>
      <circle class="cls-6" cx="2625.84" cy="279.81" r="9.4"/>
      <circle class="cls-6" cx="2703.02" cy="330.96" r="5.03"/>
      <path class="cls-6" d="M2997.13,551.65v342.7H31.94v-369.4c43.06-181.68,120.71-320.6,209.34-320.6s170.72,147,212.96,336.33c41.07-85.12,92.19-139.44,147.61-139.44,102.43,0,190.17,185.48,226.84,408.09,13.67-293.02,123.01-625.49,243.75-625.49,91.19,0,180.87,205.67,221.93,436.06,44.79-129.59,108.95-219.36,180.2-219.36,99.13,0,184.52,173.78,223.16,386.81,31.54-284.48,148.64-543.4,288.26-543.4,101.67,0,191.38,137.27,244.83,321.73,40.31-228.08,127.55-430.4,221.73-430.4s184.37,213.78,224.29,449.57c43.79-110.44,102.58-184.31,167.21-184.31,57.92,0,111.14,59.31,153.08,151.11Z"/>
      <path class="cls-6" d="M3000,616.43v282.55H3.4v-358.9C46.61,363.58,124.52,228.61,213.45,228.61s171.31,142.82,213.69,326.76c41.2-82.7,92.5-135.47,148.11-135.47,102.77,0,190.81,180.2,227.61,396.47,13.71-284.68,123.42-607.69,244.57-607.69,91.5,0,181.48,199.82,222.69,423.65,44.94-125.9,109.32-213.11,180.8-213.11,99.47,0,185.15,168.84,223.92,375.8,31.65-276.39,149.15-527.94,289.24-527.94,102.01,0,192.03,133.37,245.66,312.57,40.44-221.59,127.98-418.15,222.49-418.15s184.99,207.69,225.04,436.78c43.94-107.3,102.93-179.06,167.78-179.06,68.44,0,130.35,79.93,174.94,197.21Z"/>
      <path class="cls-6" d="M3000,296.25v563.33l-1268.54-.43v.43l-1728.06-.59.12-14.23v-214.42h38.79v104.06c0,2.23,7.35,4.01,10.36,3.15v-178.68l20.34-.27,9.4-29.18,9.04,44.17,70.02-.93,7.62-39.02c6.71-.61,4.12,0,5.22,3.06,1.64,4.55,4.35,21.53,7.54,23.34l18.26.93v176.57h10.34v-107.2h51.74v29.44h18.11v-46.25h46.56v-129.28c0-.45-3.87-2.37-2.58-3.13l20.69-.02v-52.54h111.23v52.54h18.12s-2.3,219.51-2.3,219.51l6.18,3.46,9.03-3.29v-59.91h47.86c3.7-1.85,3.57-4.19,4-7.25,3.64-25.14-5.61-53.98-2.81-77.96.48-4.15.81-8.33,3.22-12.1,2.49-3.85,52.99-34.81,61.81-40.16,4.55-2.75,9.64-7.2,15.26-7.57v179.73c0,4.29,18.1,4.29,18.1,0v-97.75h20.7v-68.32l73.34-49.17c22.26,16.23,49.97,28.76,66.35,49.17v68.32c8.51-.78,19.7,2.61,25.86-3.16v-175.52h25.87v-33.63h36.22v-73.58h10.34v73.58h36.21v33.63h23.28v209.15l15.52,3.15v-73.56c1.9-.56,3.09,2.1,3.88,2.1h109.93l2.73,88.18,17.98.1v-124.01h69.83v102.99l14.4-1.96,1.12-16.96h43.97c3.91,13.62,3.09,29.04,2.73,43.18-.38,14.3-7.25,14.13,18.79,13.64,1.7-.42,4.36-4.72,4.36-5.31v-249.1h12.95c.68-4.69-1.45-11.15.38-15.46,1.49-3.53,14.57-6.64,11.04-18.33l11.75-2.02.19-12.47,12.84-3.23v-43.09h7.76v44.14c0,.53,9.18.63,11.7,4.17,4.94,6.98-5.8,10.34,13.06,12.5l1.08,14.88,10.4-.02,1.09,19.07,14.4,1.96v249.11l6.42,3.14c7.01-1.24,2.46-17.02,3.89-21.62.62-1.99,6.44-2.59,8.52-6.12,4.87-8.29.11-30.19,25.06-23.6,15.68,4.13,7.86,16.55,10.36,24.67.67,2.15,6.2,1.98,7.44,4.85,2.37,5.47-1.18,14.4.47,20.33.44,1.55,4.26,1.69,4.89,3.11,4.93,10.99,1.88,18.93.2,29.91l23.29.02v-77.78l15.16-.29c10.66-14.51-6.65-60.18,2.76-70.36,1.79-1.93,7.28-2.05,8-4.39,1.85-6.07-2.05-15.68.46-22.28,3.12-8.19,5.27-12.82,8.39-22.62,6.73-21.2,17.22-41.66,23.46-62.96,5.12-.85,3.76,1.54,5.01,4.22,5.05,10.86,16.76,43.18,18.91,54.1,1.31,6.64-.94,15.05.56,20.1.75,2.46,8.12,2.35,9.93,7.11,2.48,6.49-1.53,16.49.44,22.3.72,2.08,5.72,2.46,7.52,4.8,4.97,6.4,3.32,44.15,2.99,54.59-.45,14.17-9.32,16.77,17.98,15.68v134.53h20.69v-62.01c0-2.29,9.76-4.6,10.4-6.73,3.61-11.99-3.05-34.37.26-47.69l19.98-13.19.39-44.86c14.36,4.01,13.04-6.29,19.89-8.02,4.32-1.09,31.9-1.02,34.63.59,2.28,1.34,1.49,5.46,3.1,6.86,1.52,1.3,6.23,1,8.48,2.51,8.63,5.76.64,31.08,4.27,40.73,2.17,5.79,18.55,14.53,19.72,17.61,1.15,3.06,1.45,6.99,1.35,11.33-.22,10.72-2.82,23.91-.83,32.41.68,2.9,3.69,5.48,6.27,7.38v64.27c0,1.11,1.81,2.11,4.01,2.72,2.22.62,4.84.85,6.35.42v-178.68l20.34-.27,9.39-29.18,9.05,44.17,70.01-.93,7.63-39.02c6.7-.61,4.12,0,5.21,3.06,1.65,4.55,4.36,21.53,7.55,23.34l18.26.93v176.57h10.34v-107.2h51.74v29.44h18.1v-46.25h46.57v-129.28c0-.45-3.88-2.37-2.58-3.13l20.69-.02v-52.54h111.23v52.54h18.12s-2.3,219.51-2.3,219.51l6.18,3.46,9.03-3.29v-59.91h47.86c3.69-1.85,3.57-4.19,4-7.25,3.64-25.14-5.62-53.98-2.81-77.96.48-4.15.8-8.33,3.22-12.1,2.49-3.85,52.99-34.81,61.81-40.16,4.55-2.75,9.64-7.2,15.26-7.57v179.73c0,4.29,18.1,4.29,18.1,0v-97.75h20.69v-68.32l73.35-49.17c22.26,16.23,49.96,28.76,66.34,49.17v68.32c8.52-.78,19.71,2.61,25.87-3.16v-175.52h25.87v-33.63h36.22v-73.58h10.34v73.58h36.21v33.63h23.28v209.15l15.52,3.15v-73.56c1.9-.56,3.09,2.1,3.88,2.1h109.93l2.73,88.18,17.98.1v-124.01h69.83v102.99l14.4-1.96,1.12-16.96h43.97c3.91,13.62,3.09,29.04,2.73,43.18-.38,14.3-7.25,14.13,18.79,13.64,1.7-.42,4.36-4.72,4.36-5.31v-249.1h12.95c.67-4.69-1.45-11.15.38-15.46,1.49-3.53,14.57-6.64,11.04-18.33l11.74-2.02.2-12.47,12.84-3.23v-43.09h7.65Z"/>
      <path class="cls-6" d="M3000,708.68v169.86H.43v-82.45c.23-1.71.56-3.39.98-5.05,5.67-22.66,27.26-39.53,53.03-39.53,12.97,0,24.89,4.28,34.25,11.43,7.24-20.37,27.64-35.04,51.67-35.04s43.65,14.12,51.24,33.87c4.51-1.15,9.26-1.76,14.15-1.76,17.76,0,33.53,8.01,43.48,20.41-.48-2.72-.72-5.51-.72-8.35,0-28.38,24.39-51.38,54.49-51.38,9.71,0,18.84,2.39,26.73,6.6,9.99-11.4,25.1-18.66,42.02-18.66,27.03,0,49.46,18.56,53.75,42.9.24-.02.49-.02.74-.02,25.77,0,47.36,16.87,53.03,39.53h2.9c-.94-3.77-1.44-7.71-1.44-11.75,0-28.38,24.4-51.39,54.49-51.39,12.44,0,23.9,3.93,33.07,10.54,9.99-10.88,24.74-17.75,41.2-17.75,18.13,0,34.18,8.34,44.09,21.18,7.77-19.43,27.67-33.24,50.99-33.24,30.1,0,54.5,23,54.5,51.38,18.27,0,34.45,8.49,44.34,21.51,4.75-9.88,12.84-18.44,23.75-23.98,24.99-12.72,55.83-5.13,71.23,16.75,5.58-16.42,19.79-29.82,38.84-34.26,9.43-2.2,18.91-1.94,27.64.36,6.8-13.32,19.62-23.8,36.03-27.63,26.24-6.12,52.74,6.82,63.1,29.48.24-.07.48-.12.72-.18,29.21-6.81,58.75,10,65.98,37.55,1,3.82,1.52,7.65,1.59,11.43h7.54c4.71-10.11,12.9-18.88,24.01-24.53,8.55-4.35,17.79-6.32,26.85-6.16,3.06-14.5,12.71-27.66,27.59-35.23,23.78-12.09,52.87-5.81,68.9,13.7.21-.12.43-.23.64-.34,26.5-13.47,59.55-4.14,73.84,20.83,4.45,7.79,6.55,16.17,6.54,24.43,9.99-11.24,25-18.39,41.77-18.39,0-28.38,24.4-51.39,54.49-51.39,23.32,0,43.23,13.82,50.99,33.25,9.91-12.84,25.97-21.19,44.1-21.19,16.45,0,31.21,6.88,41.2,17.75,9.17-6.61,20.63-10.53,33.06-10.53,26.22,0,48.11,17.46,53.31,40.73,5.2-23.27,27.09-40.73,53.31-40.73,12.43,0,23.89,3.92,33.06,10.53,9.99-10.87,24.75-17.75,41.2-17.75,18.13,0,34.19,8.35,44.1,21.19,7.76-19.43,27.67-33.25,50.99-33.25,30.09,0,54.49,23.01,54.49,51.39,16.77,0,31.78,7.15,41.77,18.39-.01-8.26,2.09-16.64,6.54-24.43,14.29-24.97,47.34-34.3,73.84-20.83.21.11.43.22.64.34,16.03-19.51,45.12-25.79,68.9-13.7,14.88,7.57,24.53,20.73,27.59,35.23,9.06-.16,18.3,1.81,26.85,6.16,11.11,5.65,19.3,14.42,24.01,24.53h7.54c.07-3.78.59-7.61,1.59-11.43,7.23-27.55,36.77-44.36,65.98-37.55.24.06.48.11.72.18,10.36-22.66,36.86-35.6,63.1-29.48,16.41,3.83,29.23,14.31,36.03,27.63,8.73-2.3,18.21-2.56,27.64-.36,19.05,4.44,33.26,17.84,38.84,34.26,15.4-21.88,46.24-29.47,71.23-16.75,10.91,5.54,19,14.1,23.75,23.98,9.89-13.02,26.07-21.51,44.34-21.51,0-28.38,24.4-51.38,54.5-51.38,23.32,0,43.22,13.81,50.99,33.24,9.91-12.84,25.96-21.18,44.09-21.18,16.46,0,31.21,6.87,41.2,17.75,9.17-6.61,20.63-10.54,33.07-10.54,30.09,0,54.49,23.01,54.49,51.39,0,4.04-.5,7.98-1.44,11.75h2.9c5.67-22.66,27.26-39.53,53.03-39.53.25,0,.5,0,.74.02,4.16-23.59,25.35-41.75,51.26-42.85Z"/>
      <path class="cls-6" d="M2844.3,219.95c-15.85,17.31-38.64,28.16-63.95,28.16-47.88,0-86.69-38.81-86.69-86.69s35.83-83.64,81.12-86.51c-14.12,15.42-22.74,35.97-22.74,58.53,0,47.87,38.82,86.69,86.69,86.69,1.87,0,3.73-.06,5.57-.18Z"/>
      <path class="cls-6" d="M2999.78,741.18v161.03H.22v-78.16c.23-1.62.56-3.21.98-4.79,5.67-21.48,27.26-37.48,53.03-37.48,12.97,0,24.89,4.06,34.25,10.84,7.24-19.31,27.64-33.22,51.67-33.22s43.65,13.39,51.24,32.11c4.51-1.09,9.26-1.67,14.15-1.67,17.76,0,33.53,7.59,43.48,19.35-.48-2.58-.72-5.22-.72-7.92,0-26.9,24.39-48.71,54.49-48.71,9.71,0,18.84,2.27,26.73,6.26,9.99-10.81,25.1-17.69,42.02-17.69,27.03,0,49.46,17.6,53.75,40.67.24-.02.49-.02.74-.02,25.77,0,47.36,15.99,53.03,37.48h2.9c-.94-3.57-1.44-7.31-1.44-11.14,0-26.9,24.4-48.72,54.49-48.72,12.44,0,23.9,3.73,33.07,9.99,9.99-10.31,24.74-16.83,41.2-16.83,18.13,0,34.18,7.91,44.09,20.08,7.77-18.42,27.67-31.51,50.99-31.51,30.1,0,54.5,21.8,54.5,48.71,18.27,0,34.45,8.05,44.34,20.39,4.75-9.37,12.84-17.48,23.75-22.73,24.99-12.06,55.83-4.86,71.23,15.88,5.58-15.57,19.79-28.27,38.84-32.48,9.43-2.09,18.91-1.84,27.64.34,6.8-12.63,19.62-22.56,36.03-26.19,26.24-5.8,52.74,6.47,63.1,27.95.24-.07.48-.11.72-.17,29.21-6.46,58.75,9.48,65.98,35.6,1,3.62,1.52,7.25,1.59,10.84h7.54c4.71-9.58,12.9-17.9,24.01-23.25,8.55-4.12,17.79-5.99,26.85-5.84,3.06-13.75,12.71-26.22,27.59-33.4,23.78-11.46,52.87-5.51,68.9,12.99.21-.11.43-.22.64-.32,26.5-12.77,59.55-3.92,73.84,19.75,4.45,7.39,6.55,15.33,6.54,23.16,9.99-10.66,25-17.43,41.77-17.43,0-26.9,24.4-48.72,54.49-48.72,23.32,0,43.23,13.1,50.99,31.52,9.91-12.17,25.97-20.09,44.1-20.09,16.45,0,31.21,6.52,41.2,16.83,9.17-6.27,20.63-9.98,33.06-9.98,26.22,0,48.11,16.55,53.31,38.61,5.2-22.06,27.09-38.61,53.31-38.61,12.43,0,23.89,3.72,33.06,9.98,9.99-10.31,24.75-16.83,41.2-16.83,18.13,0,34.19,7.92,44.1,20.09,7.76-18.42,27.67-31.52,50.99-31.52,30.09,0,54.49,21.81,54.49,48.72,16.77,0,31.78,6.78,41.77,17.43-.01-7.83,2.09-15.77,6.54-23.16,14.29-23.67,47.34-32.52,73.84-19.75.21.1.43.21.64.32,16.03-18.5,45.12-24.45,68.9-12.99,14.88,7.18,24.53,19.65,27.59,33.4,9.06-.15,18.3,1.72,26.85,5.84,11.11,5.36,19.3,13.67,24.01,23.25h7.54c.07-3.58.59-7.21,1.59-10.84,7.23-26.12,36.77-42.05,65.98-35.6.24.06.48.1.72.17,10.36-21.48,36.86-33.75,63.1-27.95,16.41,3.63,29.23,13.57,36.03,26.19,8.73-2.18,18.21-2.43,27.64-.34,19.05,4.21,33.26,16.91,38.84,32.48,15.4-20.74,46.24-27.94,71.23-15.88,10.91,5.25,19,13.37,23.75,22.73,9.89-12.34,26.07-20.39,44.34-20.39,0-26.9,24.4-48.71,54.5-48.71,23.32,0,43.22,13.09,50.99,31.51,9.91-12.17,25.96-20.08,44.09-20.08,16.46,0,31.21,6.51,41.2,16.83,9.17-6.27,20.63-9.99,33.07-9.99,30.09,0,54.49,21.81,54.49,48.72,0,3.83-.5,7.57-1.44,11.14h2.9c5.67-21.48,27.26-37.48,53.03-37.48.25,0,.5,0,.74.02,4.16-22.36,25.35-39.58,51.26-40.62Z"/>
    </g>
    <g id="extras">
      <path class="cls-6" d="M1118.4,818.16c-11.94-.1-41.11-4.79-37.51-63.05,2.66-43.2,22.65-69.64,37.51-69.73,14.87.09,34.85,26.53,37.51,69.73,3.6,58.26-25.58,62.95-37.51,63.05Z"/>
      <path class="cls-6" d="M1137.94,761.22c-2.07-1.67-5.1-1.34-6.76.73l-8.09,10.04v-37.79c0-2.66-2.15-4.81-4.81-4.81s-4.81,2.15-4.81,4.81v38.98l-7.85-9.74c-1.67-2.07-4.69-2.39-6.76-.73-2.07,1.67-2.39,4.69-.73,6.76l15.33,19.03v72.59c0,2.66,2.15,4.81,4.81,4.81s4.81-2.15,4.81-4.81v-73.8c.08-.08.15-.16.22-.25l15.36-19.06c1.67-2.07,1.34-5.1-.73-6.76Z"/>
      <g>
        <rect class="cls-6" x="474.33" y="751.95" width="133.08" height="43.2" rx="8" ry="8"/>
        <rect class="cls-6" x="462.89" y="809.06" width="158.33" height="19.86" rx="8" ry="8"/>
      </g>
      <g>
        <path class="cls-6" d="M490.72,828.92h-9.68v28.18c0,2.67,2.17,4.84,4.84,4.84h0c2.67,0,4.84-2.17,4.84-4.84v-28.18Z"/>
        <path class="cls-6" d="M603.19,828.92h-9.68v28.18c0,2.67,2.17,4.84,4.84,4.84h0c2.67,0,4.84-2.17,4.84-4.84v-28.18Z"/>
        <rect class="cls-6" x="488.73" y="795.15" width="9.69" height="13.9"/>
        <rect class="cls-6" x="585.06" y="795.15" width="9.69" height="13.9"/>
      </g>
      <g>
        <rect class="cls-6" x="1539.03" y="754.06" width="133.08" height="43.2" rx="8" ry="8"/>
        <rect class="cls-6" x="1527.58" y="811.17" width="158.33" height="19.86" rx="8" ry="8"/>
      </g>
      <g>
        <path class="cls-6" d="M1555.41,831.03h-9.68v28.18c0,2.67,2.17,4.84,4.84,4.84h0c2.67,0,4.84-2.17,4.84-4.84v-28.18Z"/>
        <path class="cls-6" d="M1667.88,831.03h-9.68v28.18c0,2.67,2.17,4.84,4.84,4.84h0c2.67,0,4.84-2.17,4.84-4.84v-28.18Z"/>
        <rect class="cls-6" x="1553.42" y="797.26" width="9.69" height="13.9"/>
        <rect class="cls-6" x="1649.75" y="797.26" width="9.69" height="13.9"/>
      </g>
      <path class="cls-6" d="M71.55,806.75c-14.79-.13-50.94-5.94-46.48-78.13,3.3-53.53,28.06-86.29,46.48-86.4,18.42.11,43.18,32.87,46.48,86.4,4.46,72.19-31.69,78-46.48,78.13Z"/>
      <path class="cls-6" d="M95.76,730.53c-2.56-2.06-6.31-1.66-8.38.9l-10.03,12.44v-46.83c0-3.29-2.67-5.96-5.96-5.96s-5.96,2.67-5.96,5.96v48.3l-9.72-12.06c-2.06-2.56-5.82-2.97-8.38-.9-2.56,2.06-2.97,5.82-.9,8.38l19,23.58v89.94c0,3.29,2.67,5.96,5.96,5.96s5.96-2.67,5.96-5.96v-91.45c.09-.1.19-.2.28-.31l19.03-23.62c2.06-2.56,1.66-6.31-.9-8.38Z"/>
    </g>
    <rect class="cls-6" y="860.6" width="3000" height="39.4"/>
  </g>
  <g>
    <g id="night-2" data-name="night">
      <rect class="cls-9" y="-2.21" width="3000" height="897"/>
      <circle class="cls-12" cx="2162.83" cy="49.39" r="5.03"/>
      <circle class="cls-12" cx="2057.96" cy="51.52" r="5.03"/>
      <circle class="cls-12" cx="124.13" cy="79.93" r="5.03"/>
      <circle class="cls-12" cx="164.34" cy="57.37" r="9.4"/>
      <circle class="cls-12" cx="471.62" cy="296.34" r="5.03"/>
      <circle class="cls-12" cx="723.53" cy="113" r="9.4"/>
      <circle class="cls-12" cx="337.63" cy="69.88" r="5.03"/>
      <path class="cls-12" d="M1331.76,103.6c0-5.19,4.21-9.4,9.4-9.4s10.4,4.21,10.4,9.4-5.21,9.4-10.4,9.4-9.4-4.21-9.4-9.4Z"/>
      <circle class="cls-12" cx="949.03" cy="53" r="5.03"/>
      <circle class="cls-12" cx="2342.85" cy="179.86" r="5.03"/>
      <circle class="cls-12" cx="2302.65" cy="202.42" r="9.4"/>
      <circle class="cls-12" cx="1738.42" cy="134.26" r="5.03"/>
      <circle class="cls-12" cx="1777.47" cy="277.38" r="9.4"/>
      <circle class="cls-12" cx="1988.32" cy="133.63" r="5.03"/>
      <circle class="cls-12" cx="1129.82" cy="156.19" r="9.4"/>
      <circle class="cls-12" cx="1539.74" cy="246.14" r="5.03"/>
      <path class="cls-12" d="M656.99,284.43c4-3.32,9.92-2.76,13.24,1.23s3.4,10.69-.59,14.01-10.56,1.99-13.88-2-2.76-9.92,1.23-13.24Z"/>
      <circle class="cls-12" cx="262.77" cy="144.33" r="9.4"/>
      <circle class="cls-12" cx="1766.8" cy="363.31" r="5.03"/>
      <circle class="cls-12" cx="1635.14" cy="430.16" r="9.4"/>
      <path class="cls-12" d="M556.23,198.12c0-5.19,4.21-9.4,9.4-9.4s10.4,4.21,10.4,9.4-5.21,9.4-10.4,9.4-9.4-4.21-9.4-9.4Z"/>
      <circle class="cls-12" cx="929.38" cy="118.52" r="5.03"/>
      <circle class="cls-12" cx="816.69" cy="196.08" r="9.4"/>
      <circle class="cls-12" cx="730.69" cy="230.4" r="5.03"/>
      <circle class="cls-12" cx="621.99" cy="243.34" r="9.4"/>
      <circle class="cls-12" cx="2162.83" cy="49.39" r="5.03"/>
      <circle class="cls-12" cx="2144.2" cy="91.57" r="9.4"/>
      <circle class="cls-12" cx="2235.36" cy="269.86" r="5.03"/>
      <circle class="cls-12" cx="2169.84" cy="250.21" r="5.03"/>
      <circle class="cls-12" cx="2092.27" cy="137.52" r="9.4"/>
      <circle class="cls-12" cx="2057.96" cy="51.52" r="5.03"/>
      <circle class="cls-12" cx="1302.43" cy="220.16" r="5.03"/>
      <circle class="cls-12" cx="48.86" cy="293.3" r="5.03"/>
      <circle class="cls-12" cx="43.13" cy="206.1" r="9.4"/>
      <circle class="cls-12" cx="124.13" cy="250.97" r="5.03"/>
      <circle class="cls-12" cx="1481.48" cy="181.12" r="9.4"/>
      <circle class="cls-12" cx="1706.98" cy="121.12" r="5.03"/>
      <circle class="cls-12" cx="1687.33" cy="186.64" r="5.03"/>
      <circle class="cls-12" cx="1574.64" cy="264.21" r="9.4"/>
      <circle class="cls-12" cx="1488.64" cy="298.52" r="5.03"/>
      <circle class="cls-12" cx="2555.04" cy="96.54" r="5.03"/>
      <circle class="cls-12" cx="2613.09" cy="132.73" r="5.03"/>
      <circle class="cls-12" cx="2625.84" cy="279.81" r="9.4"/>
      <circle class="cls-12" cx="2703.02" cy="330.96" r="5.03"/>
      <path class="cls-11" d="M2997.13,551.65v342.7H31.94v-369.4c43.06-181.68,120.71-320.6,209.34-320.6s170.72,147,212.96,336.33c41.07-85.12,92.19-139.44,147.61-139.44,102.43,0,190.17,185.48,226.84,408.09,13.67-293.02,123.01-625.49,243.75-625.49,91.19,0,180.87,205.67,221.93,436.06,44.79-129.59,108.95-219.36,180.2-219.36,99.13,0,184.52,173.78,223.16,386.81,31.54-284.48,148.64-543.4,288.26-543.4,101.67,0,191.38,137.27,244.83,321.73,40.31-228.08,127.55-430.4,221.73-430.4s184.37,213.78,224.29,449.57c43.79-110.44,102.58-184.31,167.21-184.31,57.92,0,111.14,59.31,153.08,151.11Z"/>
      <path class="cls-3" d="M3000,616.43v282.55H3.4v-358.9C46.61,363.58,124.52,228.61,213.45,228.61s171.31,142.82,213.69,326.76c41.2-82.7,92.5-135.47,148.11-135.47,102.77,0,190.81,180.2,227.61,396.47,13.71-284.68,123.42-607.69,244.57-607.69,91.5,0,181.48,199.82,222.69,423.65,44.94-125.9,109.32-213.11,180.8-213.11,99.47,0,185.15,168.84,223.92,375.8,31.65-276.39,149.15-527.94,289.24-527.94,102.01,0,192.03,133.37,245.66,312.57,40.44-221.59,127.98-418.15,222.49-418.15s184.99,207.69,225.04,436.78c43.94-107.3,102.93-179.06,167.78-179.06,68.44,0,130.35,79.93,174.94,197.21Z"/>
      <path class="cls-2" d="M3000,296.25v563.33l-1268.54-.43v.43l-1728.06-.59.12-14.23v-214.42h38.79v104.06c0,2.23,7.35,4.01,10.36,3.15v-178.68l20.34-.27,9.4-29.18,9.04,44.17,70.02-.93,7.62-39.02c6.71-.61,4.12,0,5.22,3.06,1.64,4.55,4.35,21.53,7.54,23.34l18.26.93v176.57h10.34v-107.2h51.74v29.44h18.11v-46.25h46.56v-129.28c0-.45-3.87-2.37-2.58-3.13l20.69-.02v-52.54h111.23v52.54h18.12s-2.3,219.51-2.3,219.51l6.18,3.46,9.03-3.29v-59.91h47.86c3.7-1.85,3.57-4.19,4-7.25,3.64-25.14-5.61-53.98-2.81-77.96.48-4.15.81-8.33,3.22-12.1,2.49-3.85,52.99-34.81,61.81-40.16,4.55-2.75,9.64-7.2,15.26-7.57v179.73c0,4.29,18.1,4.29,18.1,0v-97.75h20.7v-68.32l73.34-49.17c22.26,16.23,49.97,28.76,66.35,49.17v68.32c8.51-.78,19.7,2.61,25.86-3.16v-175.52h25.87v-33.63h36.22v-73.58h10.34v73.58h36.21v33.63h23.28v209.15l15.52,3.15v-73.56c1.9-.56,3.09,2.1,3.88,2.1h109.93l2.73,88.18,17.98.1v-124.01h69.83v102.99l14.4-1.96,1.12-16.96h43.97c3.91,13.62,3.09,29.04,2.73,43.18-.38,14.3-7.25,14.13,18.79,13.64,1.7-.42,4.36-4.72,4.36-5.31v-249.1h12.95c.68-4.69-1.45-11.15.38-15.46,1.49-3.53,14.57-6.64,11.04-18.33l11.75-2.02.19-12.47,12.84-3.23v-43.09h7.76v44.14c0,.53,9.18.63,11.7,4.17,4.94,6.98-5.8,10.34,13.06,12.5l1.08,14.88,10.4-.02,1.09,19.07,14.4,1.96v249.11l6.42,3.14c7.01-1.24,2.46-17.02,3.89-21.62.62-1.99,6.44-2.59,8.52-6.12,4.87-8.29.11-30.19,25.06-23.6,15.68,4.13,7.86,16.55,10.36,24.67.67,2.15,6.2,1.98,7.44,4.85,2.37,5.47-1.18,14.4.47,20.33.44,1.55,4.26,1.69,4.89,3.11,4.93,10.99,1.88,18.93.2,29.91l23.29.02v-77.78l15.16-.29c10.66-14.51-6.65-60.18,2.76-70.36,1.79-1.93,7.28-2.05,8-4.39,1.85-6.07-2.05-15.68.46-22.28,3.12-8.19,5.27-12.82,8.39-22.62,6.73-21.2,17.22-41.66,23.46-62.96,5.12-.85,3.76,1.54,5.01,4.22,5.05,10.86,16.76,43.18,18.91,54.1,1.31,6.64-.94,15.05.56,20.1.75,2.46,8.12,2.35,9.93,7.11,2.48,6.49-1.53,16.49.44,22.3.72,2.08,5.72,2.46,7.52,4.8,4.97,6.4,3.32,44.15,2.99,54.59-.45,14.17-9.32,16.77,17.98,15.68v134.53h20.69v-62.01c0-2.29,9.76-4.6,10.4-6.73,3.61-11.99-3.05-34.37.26-47.69l19.98-13.19.39-44.86c14.36,4.01,13.04-6.29,19.89-8.02,4.32-1.09,31.9-1.02,34.63.59,2.28,1.34,1.49,5.46,3.1,6.86,1.52,1.3,6.23,1,8.48,2.51,8.63,5.76.64,31.08,4.27,40.73,2.17,5.79,18.55,14.53,19.72,17.61,1.15,3.06,1.45,6.99,1.35,11.33-.22,10.72-2.82,23.91-.83,32.41.68,2.9,3.69,5.48,6.27,7.38v64.27c0,1.11,1.81,2.11,4.01,2.72,2.22.62,4.84.85,6.35.42v-178.68l20.34-.27,9.39-29.18,9.05,44.17,70.01-.93,7.63-39.02c6.7-.61,4.12,0,5.21,3.06,1.65,4.55,4.36,21.53,7.55,23.34l18.26.93v176.57h10.34v-107.2h51.74v29.44h18.1v-46.25h46.57v-129.28c0-.45-3.88-2.37-2.58-3.13l20.69-.02v-52.54h111.23v52.54h18.12s-2.3,219.51-2.3,219.51l6.18,3.46,9.03-3.29v-59.91h47.86c3.69-1.85,3.57-4.19,4-7.25,3.64-25.14-5.62-53.98-2.81-77.96.48-4.15.8-8.33,3.22-12.1,2.49-3.85,52.99-34.81,61.81-40.16,4.55-2.75,9.64-7.2,15.26-7.57v179.73c0,4.29,18.1,4.29,18.1,0v-97.75h20.69v-68.32l73.35-49.17c22.26,16.23,49.96,28.76,66.34,49.17v68.32c8.52-.78,19.71,2.61,25.87-3.16v-175.52h25.87v-33.63h36.22v-73.58h10.34v73.58h36.21v33.63h23.28v209.15l15.52,3.15v-73.56c1.9-.56,3.09,2.1,3.88,2.1h109.93l2.73,88.18,17.98.1v-124.01h69.83v102.99l14.4-1.96,1.12-16.96h43.97c3.91,13.62,3.09,29.04,2.73,43.18-.38,14.3-7.25,14.13,18.79,13.64,1.7-.42,4.36-4.72,4.36-5.31v-249.1h12.95c.67-4.69-1.45-11.15.38-15.46,1.49-3.53,14.57-6.64,11.04-18.33l11.74-2.02.2-12.47,12.84-3.23v-43.09h7.65Z"/>
      <path class="cls-7" d="M3000,708.68v169.86H.43v-82.45c.23-1.71.56-3.39.98-5.05,5.67-22.66,27.26-39.53,53.03-39.53,12.97,0,24.89,4.28,34.25,11.43,7.24-20.37,27.64-35.04,51.67-35.04s43.65,14.12,51.24,33.87c4.51-1.15,9.26-1.76,14.15-1.76,17.76,0,33.53,8.01,43.48,20.41-.48-2.72-.72-5.51-.72-8.35,0-28.38,24.39-51.38,54.49-51.38,9.71,0,18.84,2.39,26.73,6.6,9.99-11.4,25.1-18.66,42.02-18.66,27.03,0,49.46,18.56,53.75,42.9.24-.02.49-.02.74-.02,25.77,0,47.36,16.87,53.03,39.53h2.9c-.94-3.77-1.44-7.71-1.44-11.75,0-28.38,24.4-51.39,54.49-51.39,12.44,0,23.9,3.93,33.07,10.54,9.99-10.88,24.74-17.75,41.2-17.75,18.13,0,34.18,8.34,44.09,21.18,7.77-19.43,27.67-33.24,50.99-33.24,30.1,0,54.5,23,54.5,51.38,18.27,0,34.45,8.49,44.34,21.51,4.75-9.88,12.84-18.44,23.75-23.98,24.99-12.72,55.83-5.13,71.23,16.75,5.58-16.42,19.79-29.82,38.84-34.26,9.43-2.2,18.91-1.94,27.64.36,6.8-13.32,19.62-23.8,36.03-27.63,26.24-6.12,52.74,6.82,63.1,29.48.24-.07.48-.12.72-.18,29.21-6.81,58.75,10,65.98,37.55,1,3.82,1.52,7.65,1.59,11.43h7.54c4.71-10.11,12.9-18.88,24.01-24.53,8.55-4.35,17.79-6.32,26.85-6.16,3.06-14.5,12.71-27.66,27.59-35.23,23.78-12.09,52.87-5.81,68.9,13.7.21-.12.43-.23.64-.34,26.5-13.47,59.55-4.14,73.84,20.83,4.45,7.79,6.55,16.17,6.54,24.43,9.99-11.24,25-18.39,41.77-18.39,0-28.38,24.4-51.39,54.49-51.39,23.32,0,43.23,13.82,50.99,33.25,9.91-12.84,25.97-21.19,44.1-21.19,16.45,0,31.21,6.88,41.2,17.75,9.17-6.61,20.63-10.53,33.06-10.53,26.22,0,48.11,17.46,53.31,40.73,5.2-23.27,27.09-40.73,53.31-40.73,12.43,0,23.89,3.92,33.06,10.53,9.99-10.87,24.75-17.75,41.2-17.75,18.13,0,34.19,8.35,44.1,21.19,7.76-19.43,27.67-33.25,50.99-33.25,30.09,0,54.49,23.01,54.49,51.39,16.77,0,31.78,7.15,41.77,18.39-.01-8.26,2.09-16.64,6.54-24.43,14.29-24.97,47.34-34.3,73.84-20.83.21.11.43.22.64.34,16.03-19.51,45.12-25.79,68.9-13.7,14.88,7.57,24.53,20.73,27.59,35.23,9.06-.16,18.3,1.81,26.85,6.16,11.11,5.65,19.3,14.42,24.01,24.53h7.54c.07-3.78.59-7.61,1.59-11.43,7.23-27.55,36.77-44.36,65.98-37.55.24.06.48.11.72.18,10.36-22.66,36.86-35.6,63.1-29.48,16.41,3.83,29.23,14.31,36.03,27.63,8.73-2.3,18.21-2.56,27.64-.36,19.05,4.44,33.26,17.84,38.84,34.26,15.4-21.88,46.24-29.47,71.23-16.75,10.91,5.54,19,14.1,23.75,23.98,9.89-13.02,26.07-21.51,44.34-21.51,0-28.38,24.4-51.38,54.5-51.38,23.32,0,43.22,13.81,50.99,33.24,9.91-12.84,25.96-21.18,44.09-21.18,16.46,0,31.21,6.87,41.2,17.75,9.17-6.61,20.63-10.54,33.07-10.54,30.09,0,54.49,23.01,54.49,51.39,0,4.04-.5,7.98-1.44,11.75h2.9c5.67-22.66,27.26-39.53,53.03-39.53.25,0,.5,0,.74.02,4.16-23.59,25.35-41.75,51.26-42.85Z"/>
      <path class="cls-5" d="M2844.3,219.95c-15.85,17.31-38.64,28.16-63.95,28.16-47.88,0-86.69-38.81-86.69-86.69s35.83-83.64,81.12-86.51c-14.12,15.42-22.74,35.97-22.74,58.53,0,47.87,38.82,86.69,86.69,86.69,1.87,0,3.73-.06,5.57-.18Z"/>
      <path class="cls-13" d="M2999.78,741.18v161.03H.22v-78.16c.23-1.62.56-3.21.98-4.79,5.67-21.48,27.26-37.48,53.03-37.48,12.97,0,24.89,4.06,34.25,10.84,7.24-19.31,27.64-33.22,51.67-33.22s43.65,13.39,51.24,32.11c4.51-1.09,9.26-1.67,14.15-1.67,17.76,0,33.53,7.59,43.48,19.35-.48-2.58-.72-5.22-.72-7.92,0-26.9,24.39-48.71,54.49-48.71,9.71,0,18.84,2.27,26.73,6.26,9.99-10.81,25.1-17.69,42.02-17.69,27.03,0,49.46,17.6,53.75,40.67.24-.02.49-.02.74-.02,25.77,0,47.36,15.99,53.03,37.48h2.9c-.94-3.57-1.44-7.31-1.44-11.14,0-26.9,24.4-48.72,54.49-48.72,12.44,0,23.9,3.73,33.07,9.99,9.99-10.31,24.74-16.83,41.2-16.83,18.13,0,34.18,7.91,44.09,20.08,7.77-18.42,27.67-31.51,50.99-31.51,30.1,0,54.5,21.8,54.5,48.71,18.27,0,34.45,8.05,44.34,20.39,4.75-9.37,12.84-17.48,23.75-22.73,24.99-12.06,55.83-4.86,71.23,15.88,5.58-15.57,19.79-28.27,38.84-32.48,9.43-2.09,18.91-1.84,27.64.34,6.8-12.63,19.62-22.56,36.03-26.19,26.24-5.8,52.74,6.47,63.1,27.95.24-.07.48-.11.72-.17,29.21-6.46,58.75,9.48,65.98,35.6,1,3.62,1.52,7.25,1.59,10.84h7.54c4.71-9.58,12.9-17.9,24.01-23.25,8.55-4.12,17.79-5.99,26.85-5.84,3.06-13.75,12.71-26.22,27.59-33.4,23.78-11.46,52.87-5.51,68.9,12.99.21-.11.43-.22.64-.32,26.5-12.77,59.55-3.92,73.84,19.75,4.45,7.39,6.55,15.33,6.54,23.16,9.99-10.66,25-17.43,41.77-17.43,0-26.9,24.4-48.72,54.49-48.72,23.32,0,43.23,13.1,50.99,31.52,9.91-12.17,25.97-20.09,44.1-20.09,16.45,0,31.21,6.52,41.2,16.83,9.17-6.27,20.63-9.98,33.06-9.98,26.22,0,48.11,16.55,53.31,38.61,5.2-22.06,27.09-38.61,53.31-38.61,12.43,0,23.89,3.72,33.06,9.98,9.99-10.31,24.75-16.83,41.2-16.83,18.13,0,34.19,7.92,44.1,20.09,7.76-18.42,27.67-31.52,50.99-31.52,30.09,0,54.49,21.81,54.49,48.72,16.77,0,31.78,6.78,41.77,17.43-.01-7.83,2.09-15.77,6.54-23.16,14.29-23.67,47.34-32.52,73.84-19.75.21.1.43.21.64.32,16.03-18.5,45.12-24.45,68.9-12.99,14.88,7.18,24.53,19.65,27.59,33.4,9.06-.15,18.3,1.72,26.85,5.84,11.11,5.36,19.3,13.67,24.01,23.25h7.54c.07-3.58.59-7.21,1.59-10.84,7.23-26.12,36.77-42.05,65.98-35.6.24.06.48.1.72.17,10.36-21.48,36.86-33.75,63.1-27.95,16.41,3.63,29.23,13.57,36.03,26.19,8.73-2.18,18.21-2.43,27.64-.34,19.05,4.21,33.26,16.91,38.84,32.48,15.4-20.74,46.24-27.94,71.23-15.88,10.91,5.25,19,13.37,23.75,22.73,9.89-12.34,26.07-20.39,44.34-20.39,0-26.9,24.4-48.71,54.5-48.71,23.32,0,43.22,13.09,50.99,31.51,9.91-12.17,25.96-20.08,44.09-20.08,16.46,0,31.21,6.51,41.2,16.83,9.17-6.27,20.63-9.99,33.07-9.99,30.09,0,54.49,21.81,54.49,48.72,0,3.83-.5,7.57-1.44,11.14h2.9c5.67-21.48,27.26-37.48,53.03-37.48.25,0,.5,0,.74.02,4.16-22.36,25.35-39.58,51.26-40.62Z"/>
    </g>
    <g id="extras-2" data-name="extras">
      <path class="cls-1" d="M1118.4,818.16c-11.94-.1-41.11-4.79-37.51-63.05,2.66-43.2,22.65-69.64,37.51-69.73,14.87.09,34.85,26.53,37.51,69.73,3.6,58.26-25.58,62.95-37.51,63.05Z"/>
      <path class="cls-14" d="M1137.94,761.22c-2.07-1.67-5.1-1.34-6.76.73l-8.09,10.04v-37.79c0-2.66-2.15-4.81-4.81-4.81s-4.81,2.15-4.81,4.81v38.98l-7.85-9.74c-1.67-2.07-4.69-2.39-6.76-.73-2.07,1.67-2.39,4.69-.73,6.76l15.33,19.03v72.59c0,2.66,2.15,4.81,4.81,4.81s4.81-2.15,4.81-4.81v-73.8c.08-.08.15-.16.22-.25l15.36-19.06c1.67-2.07,1.34-5.1-.73-6.76Z"/>
      <g>
        <rect class="cls-8" x="474.33" y="751.95" width="133.08" height="43.2" rx="8" ry="8"/>
        <rect class="cls-8" x="462.89" y="809.06" width="158.33" height="19.86" rx="8" ry="8"/>
      </g>
      <g>
        <path class="cls-4" d="M490.72,828.92h-9.68v28.18c0,2.67,2.17,4.84,4.84,4.84h0c2.67,0,4.84-2.17,4.84-4.84v-28.18Z"/>
        <path class="cls-4" d="M603.19,828.92h-9.68v28.18c0,2.67,2.17,4.84,4.84,4.84h0c2.67,0,4.84-2.17,4.84-4.84v-28.18Z"/>
        <rect class="cls-4" x="488.73" y="795.15" width="9.69" height="13.9"/>
        <rect class="cls-4" x="585.06" y="795.15" width="9.69" height="13.9"/>
      </g>
      <g>
        <rect class="cls-8" x="1539.03" y="754.06" width="133.08" height="43.2" rx="8" ry="8"/>
        <rect class="cls-8" x="1527.58" y="811.17" width="158.33" height="19.86" rx="8" ry="8"/>
      </g>
      <g>
        <path class="cls-4" d="M1555.41,831.03h-9.68v28.18c0,2.67,2.17,4.84,4.84,4.84h0c2.67,0,4.84-2.17,4.84-4.84v-28.18Z"/>
        <path class="cls-4" d="M1667.88,831.03h-9.68v28.18c0,2.67,2.17,4.84,4.84,4.84h0c2.67,0,4.84-2.17,4.84-4.84v-28.18Z"/>
        <rect class="cls-4" x="1553.42" y="797.26" width="9.69" height="13.9"/>
        <rect class="cls-4" x="1649.75" y="797.26" width="9.69" height="13.9"/>
      </g>
      <path class="cls-1" d="M71.55,806.75c-14.79-.13-50.94-5.94-46.48-78.13,3.3-53.53,28.06-86.29,46.48-86.4,18.42.11,43.18,32.87,46.48,86.4,4.46,72.19-31.69,78-46.48,78.13Z"/>
      <path class="cls-14" d="M95.76,730.53c-2.56-2.06-6.31-1.66-8.38.9l-10.03,12.44v-46.83c0-3.29-2.67-5.96-5.96-5.96s-5.96,2.67-5.96,5.96v48.3l-9.72-12.06c-2.06-2.56-5.82-2.97-8.38-.9-2.56,2.06-2.97,5.82-.9,8.38l19,23.58v89.94c0,3.29,2.67,5.96,5.96,5.96s5.96-2.67,5.96-5.96v-91.45c.09-.1.19-.2.28-.31l19.03-23.62c2.06-2.56,1.66-6.31-.9-8.38Z"/>
    </g>
    <rect class="cls-10" y="860.6" width="3000" height="39.4"/>
  </g>
</svg>