<?xml version="1.0" encoding="UTF-8"?>
<svg id="Layer_16" data-name="Layer 16" xmlns="http://www.w3.org/2000/svg" viewBox="0 0 3000 900">
  <defs>
    <style>
      .cls-1 {
        fill: #bfd5ea;
      }

      .cls-2 {
        fill: #d3d486;
      }

      .cls-3 {
        fill: #f2d88f;
      }

      .cls-4 {
        fill: #72a1d0;
      }

      .cls-5 {
        fill: #7a6c49;
      }

      .cls-6 {
        fill: #bdbd4a;
      }

      .cls-7 {
        fill: #8eb4d9;
      }

      .cls-8 {
        fill: #fde8d3;
      }

      .cls-9 {
        fill: #c27120;
      }

      .cls-10 {
        fill: #aa631c;
      }

      .cls-11 {
        fill: #c4c55f;
      }

      .cls-12 {
        fill: #a1c0e0;
      }

      .cls-13 {
        fill: #637684;
      }

      .cls-14 {
        fill: #f4d990;
      }
    </style>
  </defs>
  <g>
    <g id="day">
      <rect class="cls-3" x="3.4" y="3.85" width="2996.6" height="896.12"/>
      <g>
        <path class="cls-3" d="M1508.73,155.98s-8.44-3.23-6.7-16.88c1.74-13.66,10.18-35.75,28.8-37.49,0,0,12.41-.74,20.86,9.43,0,0,11.67-47.67,47.42-46.68,0,0,40.72-1.24,46.92,55.86,0,0,4.97-5.71,15.89-6.21s21.1,13.9,22.59,18.12c0,0,4.72,11.67,2.48,16.14s-5.21,7.7-9.43,7.7h-168.83Z"/>
        <path class="cls-3" d="M2121.39,264.18s-6.46-2.47-5.13-12.92,7.79-27.37,22.05-28.7c0,0,9.5-.57,15.96,7.22,0,0,8.93-36.49,36.3-35.73,0,0,31.17-.95,35.92,42.76,0,0,3.8-4.37,12.16-4.75,8.36-.38,16.15,10.64,17.29,13.87,0,0,3.61,8.93,1.9,12.35-1.71,3.42-3.99,5.89-7.22,5.89h-129.23Z"/>
        <path class="cls-3" d="M444.03,236.04s-8.44-3.23-6.7-16.88,10.18-35.75,28.8-37.49c0,0,12.41-.74,20.86,9.43,0,0,11.67-47.67,47.42-46.68,0,0,40.72-1.24,46.92,55.86,0,0,4.97-5.71,15.89-6.21,10.92-.5,21.1,13.9,22.59,18.12,0,0,4.72,11.67,2.48,16.14s-5.21,7.7-9.43,7.7h-168.83Z"/>
        <path class="cls-3" d="M794.59,140.9s-7.05-2.7-5.6-14.1,8.5-29.87,24.06-31.32c0,0,10.37-.62,17.42,7.88,0,0,9.75-39.82,39.61-38.99,0,0,34.01-1.04,39.2,46.66,0,0,4.15-4.77,13.27-5.18,9.13-.41,17.63,11.61,18.87,15.14,0,0,3.94,9.75,2.07,13.48-1.87,3.73-4.36,6.43-7.88,6.43h-141.03Z"/>
        <path class="cls-3" d="M3000.11,231.22v63.69h-101.78s-7.05-2.69-5.6-14.1c1.46-11.41,8.51-29.87,24.06-31.32,0,0,10.37-.62,17.42,7.88,0,0,9.75-39.82,39.62-38.99,0,0,14.73-.45,26.28,12.84Z"/>
        <path class="cls-3" d="M1806.85,302.45s-7.05-2.7-5.6-14.1,8.5-29.87,24.06-31.32c0,0,10.37-.62,17.42,7.88,0,0,9.75-39.82,39.61-38.99,0,0,34.01-1.04,39.2,46.66,0,0,4.15-4.77,13.27-5.18,9.13-.41,17.63,11.61,18.87,15.14,0,0,3.94,9.75,2.07,13.48-1.87,3.73-4.36,6.43-7.88,6.43h-141.03Z"/>
        <path class="cls-3" d="M118.6,334.3c-1.87,3.73-4.36,6.43-7.88,6.43H-.11v-42.35c1.96,1.14,3.92,2.69,5.68,4.81,0,0,9.74-39.82,39.61-38.99,0,0,34.01-1.04,39.2,46.66,0,0,4.15-4.77,13.27-5.18,9.13-.42,17.63,11.61,18.87,15.14,0,0,3.95,9.74,2.08,13.48Z"/>
        <path class="cls-3" d="M257.73,139.7s-5.44-2.08-4.32-10.88c1.12-8.8,6.56-23.05,18.57-24.17,0,0,8-.48,13.44,6.08,0,0,7.52-30.73,30.57-30.09,0,0,26.25-.8,30.25,36.01,0,0,3.2-3.68,10.24-4,7.04-.32,13.6,8.96,14.57,11.68,0,0,3.04,7.52,1.6,10.4-1.44,2.88-3.36,4.96-6.08,4.96h-108.84Z"/>
      </g>
      <circle class="cls-3" cx="2763.17" cy="159.42" r="69.51"/>
      <path class="cls-3" d="M2997.13,546.35v342.7H31.94v-369.4c43.06-181.68,120.71-320.6,209.34-320.6s170.72,147,212.96,336.33c41.07-85.12,92.19-139.44,147.61-139.44,102.43,0,190.17,185.48,226.84,408.09,13.67-293.02,123.01-625.49,243.75-625.49,91.19,0,180.87,205.67,221.93,436.06,44.79-129.59,108.95-219.36,180.2-219.36,99.13,0,184.52,173.78,223.16,386.81,31.54-284.48,148.64-543.4,288.26-543.4,101.67,0,191.38,137.27,244.83,321.73,40.31-228.08,127.55-430.4,221.73-430.4s184.37,213.78,224.29,449.57c43.79-110.44,102.58-184.31,167.21-184.31,57.92,0,111.14,59.31,153.08,151.11Z"/>
      <path class="cls-3" d="M3000,609.15v290.82H3.4v-369.41C46.61,348.89,124.52,209.97,213.45,209.97s171.31,147,213.69,336.33c41.2-85.12,92.5-139.44,148.11-139.44,102.77,0,190.81,185.48,227.61,408.08,13.71-293.01,123.42-625.49,244.57-625.49,91.5,0,181.48,205.67,222.69,436.06,44.94-129.59,109.32-219.35,180.8-219.35,99.47,0,185.15,173.78,223.92,386.81,31.65-284.48,149.15-543.4,289.24-543.4,102.01,0,192.03,137.27,245.66,321.73,40.44-228.08,127.98-430.4,222.49-430.4s184.99,213.78,225.04,449.57c43.94-110.44,102.93-184.31,167.78-184.31,68.44,0,130.35,82.27,174.94,202.99Z"/>
      <path class="cls-3" d="M2998.3,296.18v563.33l-1268.54-.43v.43l-1728.06-.59.12-14.23v-214.42h38.79v104.06c0,2.23,7.35,4.01,10.36,3.15v-178.68l20.34-.27,9.4-29.18,9.04,44.17,70.02-.93,7.62-39.02c6.71-.61,4.12,0,5.22,3.06,1.64,4.55,4.35,21.53,7.54,23.34l18.26.93v176.57h10.34v-107.2h51.74v29.44h18.11v-46.25h46.56v-129.28c0-.45-3.87-2.37-2.58-3.13l20.69-.02v-52.54h111.23v52.54h18.12s-2.3,219.51-2.3,219.51l6.18,3.46,9.03-3.29v-59.91h47.86c3.7-1.85,3.57-4.19,4-7.25,3.64-25.14-5.61-53.98-2.81-77.96.48-4.15.81-8.33,3.22-12.1,2.49-3.85,52.99-34.81,61.81-40.16,4.55-2.75,9.64-7.2,15.26-7.57v179.73c0,4.29,18.1,4.29,18.1,0v-97.75h20.7v-68.32l73.34-49.17c22.26,16.23,49.97,28.76,66.35,49.17v68.32c8.51-.78,19.7,2.61,25.86-3.16v-175.52h25.87v-33.63h36.22v-73.58h10.34v73.58h36.21v33.63h23.28v209.15l15.52,3.15v-73.56c1.9-.56,3.09,2.1,3.88,2.1h109.93l2.73,88.18,17.98.1v-124.01h69.83v102.99l14.4-1.96,1.12-16.96h43.97c3.91,13.62,3.09,29.04,2.73,43.18-.38,14.3-7.25,14.13,18.79,13.64,1.7-.42,4.36-4.72,4.36-5.31v-249.1h12.95c.68-4.69-1.45-11.15.38-15.46,1.49-3.53,14.57-6.64,11.04-18.33l11.75-2.02.19-12.47,12.84-3.23v-43.09h7.76v44.14c0,.53,9.18.63,11.7,4.17,4.94,6.98-5.8,10.34,13.06,12.5l1.08,14.88,10.4-.02,1.09,19.07,14.4,1.96v249.11l6.42,3.14c7.01-1.24,2.46-17.02,3.89-21.62.62-1.99,6.44-2.59,8.52-6.12,4.87-8.29.11-30.19,25.06-23.6,15.68,4.13,7.86,16.55,10.36,24.67.67,2.15,6.2,1.98,7.44,4.85,2.37,5.47-1.18,14.4.47,20.33.44,1.55,4.26,1.69,4.89,3.11,4.93,10.99,1.88,18.93.2,29.91l23.29.02v-77.78l15.16-.29c10.66-14.51-6.65-60.18,2.76-70.36,1.79-1.93,7.28-2.05,8-4.39,1.85-6.07-2.05-15.68.46-22.28,3.12-8.19,5.27-12.82,8.39-22.62,6.73-21.2,17.22-41.66,23.46-62.96,5.12-.85,3.76,1.54,5.01,4.22,5.05,10.86,16.76,43.18,18.91,54.1,1.31,6.64-.94,15.05.56,20.1.75,2.46,8.12,2.35,9.93,7.11,2.48,6.49-1.53,16.49.44,22.3.72,2.08,5.72,2.46,7.52,4.8,4.97,6.4,3.32,44.15,2.99,54.59-.45,14.17-9.32,16.77,17.98,15.68v134.53h20.69v-62.01c0-2.29,9.76-4.6,10.4-6.73,3.61-11.99-3.05-34.37.26-47.69l19.98-13.19.39-44.86c14.36,4.01,13.04-6.29,19.89-8.02,4.32-1.09,31.9-1.02,34.63.59,2.28,1.34,1.49,5.46,3.1,6.86,1.52,1.3,6.23,1,8.48,2.51,8.63,5.76.64,31.08,4.27,40.73,2.17,5.79,18.55,14.53,19.72,17.61,1.15,3.06,1.45,6.99,1.35,11.33-.22,10.72-2.82,23.91-.83,32.41.68,2.9,3.69,5.48,6.27,7.38v64.27c0,1.11,1.81,2.11,4.01,2.72,2.22.62,4.84.85,6.35.42v-178.68l20.34-.27,9.39-29.18,9.05,44.17,70.01-.93,7.63-39.02c6.7-.61,4.12,0,5.21,3.06,1.65,4.55,4.36,21.53,7.55,23.34l18.26.93v176.57h10.34v-107.2h51.74v29.44h18.1v-46.25h46.57v-129.28c0-.45-3.88-2.37-2.58-3.13l20.69-.02v-52.54h111.23v52.54h18.12s-2.3,219.51-2.3,219.51l6.18,3.46,9.03-3.29v-59.91h47.86c3.69-1.85,3.57-4.19,4-7.25,3.64-25.14-5.62-53.98-2.81-77.96.48-4.15.8-8.33,3.22-12.1,2.49-3.85,52.99-34.81,61.81-40.16,4.55-2.75,9.64-7.2,15.26-7.57v179.73c0,4.29,18.1,4.29,18.1,0v-97.75h20.69v-68.32l73.35-49.17c22.26,16.23,49.96,28.76,66.34,49.17v68.32c8.52-.78,19.71,2.61,25.87-3.16v-175.52h25.87v-33.63h36.22v-73.58h10.34v73.58h36.21v33.63h23.28v209.15l15.52,3.15v-73.56c1.9-.56,3.09,2.1,3.88,2.1h109.93l2.73,88.18,17.98.1v-124.01h69.83v102.99l14.4-1.96,1.12-16.96h43.97c3.91,13.62,3.09,29.04,2.73,43.18-.38,14.3-7.25,14.13,18.79,13.64,1.7-.42,4.36-4.72,4.36-5.31v-249.1h12.95c.67-4.69-1.45-11.15.38-15.46,1.49-3.53,14.57-6.64,11.04-18.33l11.74-2.02.2-12.47,12.84-3.23v-43.09h7.65Z"/>
      <path class="cls-3" d="M2999.78,687.6v169.86H.22v-82.45c.23-1.71.56-3.39.98-5.05,5.67-22.66,27.26-39.53,53.03-39.53,12.97,0,24.89,4.28,34.25,11.43,7.24-20.37,27.64-35.04,51.67-35.04s43.65,14.12,51.24,33.87c4.51-1.15,9.26-1.76,14.15-1.76,17.76,0,33.53,8.01,43.48,20.41-.48-2.72-.72-5.51-.72-8.35,0-28.38,24.39-51.38,54.49-51.38,9.71,0,18.84,2.39,26.73,6.6,9.99-11.4,25.1-18.66,42.02-18.66,27.03,0,49.46,18.56,53.75,42.9.24-.02.49-.02.74-.02,25.77,0,47.36,16.87,53.03,39.53h2.9c-.94-3.77-1.44-7.71-1.44-11.75,0-28.38,24.4-51.39,54.49-51.39,12.44,0,23.9,3.93,33.07,10.54,9.99-10.88,24.74-17.75,41.2-17.75,18.13,0,34.18,8.34,44.09,21.18,7.77-19.43,27.67-33.24,50.99-33.24,30.1,0,54.5,23,54.5,51.38,18.27,0,34.45,8.49,44.34,21.51,4.75-9.88,12.84-18.44,23.75-23.98,24.99-12.72,55.83-5.13,71.23,16.75,5.58-16.42,19.79-29.82,38.84-34.26,9.43-2.2,18.91-1.94,27.64.36,6.8-13.32,19.62-23.8,36.03-27.63,26.24-6.12,52.74,6.82,63.1,29.48.24-.07.48-.12.72-.18,29.21-6.81,58.75,10,65.98,37.55,1,3.82,1.52,7.65,1.59,11.43h7.54c4.71-10.11,12.9-18.88,24.01-24.53,8.55-4.35,17.79-6.32,26.85-6.16,3.06-14.5,12.71-27.66,27.59-35.23,23.78-12.09,52.87-5.81,68.9,13.7.21-.12.43-.23.64-.34,26.5-13.47,59.55-4.14,73.84,20.83,4.45,7.79,6.55,16.17,6.54,24.43,9.99-11.24,25-18.39,41.77-18.39,0-28.38,24.4-51.39,54.49-51.39,23.32,0,43.23,13.82,50.99,33.25,9.91-12.84,25.97-21.19,44.1-21.19,16.45,0,31.21,6.88,41.2,17.75,9.17-6.61,20.63-10.53,33.06-10.53,26.22,0,48.11,17.46,53.31,40.73,5.2-23.27,27.09-40.73,53.31-40.73,12.43,0,23.89,3.92,33.06,10.53,9.99-10.87,24.75-17.75,41.2-17.75,18.13,0,34.19,8.35,44.1,21.19,7.76-19.43,27.67-33.25,50.99-33.25,30.09,0,54.49,23.01,54.49,51.39,16.77,0,31.78,7.15,41.77,18.39-.01-8.26,2.09-16.64,6.54-24.43,14.29-24.97,47.34-34.3,73.84-20.83.21.11.43.22.64.34,16.03-19.51,45.12-25.79,68.9-13.7,14.88,7.57,24.53,20.73,27.59,35.23,9.06-.16,18.3,1.81,26.85,6.16,11.11,5.65,19.3,14.42,24.01,24.53h7.54c.07-3.78.59-7.61,1.59-11.43,7.23-27.55,36.77-44.36,65.98-37.55.24.06.48.11.72.18,10.36-22.66,36.86-35.6,63.1-29.48,16.41,3.83,29.23,14.31,36.03,27.63,8.73-2.3,18.21-2.56,27.64-.36,19.05,4.44,33.26,17.84,38.84,34.26,15.4-21.88,46.24-29.47,71.23-16.75,10.91,5.54,19,14.1,23.75,23.98,9.89-13.02,26.07-21.51,44.34-21.51,0-28.38,24.4-51.38,54.5-51.38,23.32,0,43.22,13.81,50.99,33.24,9.91-12.84,25.96-21.18,44.09-21.18,16.46,0,31.21,6.87,41.2,17.75,9.17-6.61,20.63-10.54,33.07-10.54,30.09,0,54.49,23.01,54.49,51.39,0,4.04-.5,7.98-1.44,11.75h2.9c5.67-22.66,27.26-39.53,53.03-39.53.25,0,.5,0,.74.02,4.16-23.59,25.35-41.75,51.26-42.85Z"/>
      <path class="cls-3" d="M2997.13,736.22v158.48H2.87v-76.93c.23-1.6.56-3.16.98-4.71,5.66-21.14,27.21-36.88,52.94-36.88,12.95,0,24.85,3.99,34.19,10.66,7.23-19.01,27.59-32.69,51.58-32.69s43.57,13.17,51.15,31.6c4.5-1.07,9.24-1.64,14.13-1.64,17.73,0,33.47,7.47,43.4,19.04-.48-2.54-.72-5.14-.72-7.79,0-26.48,24.35-47.94,54.39-47.94,9.69,0,18.81,2.23,26.68,6.16,9.97-10.64,25.06-17.41,41.95-17.41,26.98,0,49.37,17.32,53.65,40.03.24-.02.49-.02.74-.02,25.72,0,47.28,15.74,52.94,36.88h2.89c-.94-3.52-1.44-7.19-1.44-10.96,0-26.48,24.36-47.95,54.39-47.95,12.42,0,23.86,3.67,33.01,9.83,9.97-10.15,24.7-16.56,41.13-16.56,18.1,0,34.12,7.78,44.01,19.76,7.76-18.13,27.62-31.01,50.9-31.01,30.05,0,54.4,21.46,54.4,47.94,18.24,0,34.39,7.92,44.26,20.07,4.74-9.22,12.82-17.2,23.71-22.37,24.95-11.87,55.73-4.79,71.1,15.63,5.57-15.32,19.76-27.82,38.77-31.96,9.41-2.05,18.88-1.81,27.59.34,6.79-12.43,19.59-22.21,35.97-25.78,26.19-5.71,52.65,6.36,62.99,27.51.24-.07.48-.11.72-.17,29.16-6.35,58.65,9.33,65.86,35.03,1,3.56,1.52,7.14,1.59,10.66h7.53c4.7-9.43,12.88-17.62,23.97-22.89,8.53-4.06,17.76-5.9,26.8-5.75,3.05-13.53,12.69-25.81,27.54-32.87,23.74-11.28,52.78-5.42,68.78,12.78.21-.11.43-.21.64-.32,26.45-12.57,59.44-3.86,73.71,19.43,4.44,7.27,6.54,15.09,6.53,22.79,9.97-10.49,24.96-17.16,41.7-17.16,0-26.48,24.36-47.95,54.39-47.95,23.28,0,43.15,12.89,50.9,31.02,9.89-11.98,25.92-19.77,44.02-19.77,16.42,0,31.15,6.42,41.13,16.56,9.15-6.17,20.59-9.82,33-9.82,26.17,0,48.02,16.29,53.22,38,5.19-21.71,27.04-38,53.22-38,12.41,0,23.85,3.66,33,9.82,9.97-10.14,24.71-16.56,41.13-16.56,18.1,0,34.13,7.79,44.02,19.77,7.75-18.13,27.62-31.02,50.9-31.02,30.04,0,54.39,21.47,54.39,47.95,16.74,0,31.72,6.67,41.7,17.16,0-7.71,2.09-15.53,6.53-22.79,14.26-23.3,47.26-32,73.71-19.43.21.1.43.21.64.32,16-18.2,45.04-24.06,68.78-12.78,14.85,7.06,24.49,19.34,27.54,32.87,9.04-.15,18.27,1.69,26.8,5.75,11.09,5.27,19.27,13.45,23.97,22.89h7.53c.07-3.53.59-7.1,1.59-10.66,7.22-25.7,36.7-41.39,65.86-35.03.24.06.48.1.72.17,10.34-21.14,36.79-33.22,62.99-27.51,16.38,3.57,29.18,13.35,35.97,25.78,8.71-2.15,18.18-2.39,27.59-.34,19.02,4.14,33.2,16.64,38.77,31.96,15.37-20.41,46.16-27.5,71.1-15.63,10.89,5.17,18.97,13.16,23.71,22.37,9.87-12.15,26.02-20.07,44.26-20.07,0-26.48,24.36-47.94,54.4-47.94,23.28,0,43.14,12.88,50.9,31.01,9.89-11.98,25.91-19.76,44.01-19.76,16.43,0,31.15,6.41,41.13,16.56,9.15-6.17,20.59-9.83,33.01-9.83,30.04,0,54.39,21.47,54.39,47.95,0,3.77-.5,7.45-1.44,10.96h2.9c5.66-21.14,27.21-36.88,52.94-36.88.25,0,.5,0,.74.02,4.15-22.01,25.3-38.95,51.17-39.98Z"/>
    </g>
    <g id="extras">
      <path class="cls-3" d="M1106.35,820.33c-11.94-.1-41.11-4.79-37.51-63.05,2.66-43.2,22.65-69.64,37.51-69.73,14.87.09,34.85,26.53,37.51,69.73,3.6,58.26-25.58,62.95-37.51,63.05Z"/>
      <path class="cls-3" d="M1125.89,763.39c-2.07-1.67-5.1-1.34-6.76.73l-8.09,10.04v-37.79c0-2.66-2.15-4.81-4.81-4.81s-4.81,2.15-4.81,4.81v38.98l-7.85-9.74c-1.67-2.07-4.69-2.39-6.76-.73-2.07,1.67-2.39,4.69-.73,6.76l15.33,19.03v72.59c0,2.66,2.15,4.81,4.81,4.81s4.81-2.15,4.81-4.81v-73.8c.08-.08.15-.16.22-.25l15.36-19.06c1.67-2.07,1.34-5.1-.73-6.76Z"/>
      <g>
        <rect class="cls-3" x="462.27" y="754.12" width="133.08" height="43.2" rx="8" ry="8"/>
        <rect class="cls-3" x="450.83" y="811.22" width="158.33" height="19.86" rx="8" ry="8"/>
      </g>
      <g>
        <path class="cls-3" d="M478.66,831.09h-9.68v28.18c0,2.67,2.17,4.84,4.84,4.84h0c2.67,0,4.84-2.17,4.84-4.84v-28.18Z"/>
        <path class="cls-3" d="M591.13,831.09h-9.68v28.18c0,2.67,2.17,4.84,4.84,4.84h0c2.67,0,4.84-2.17,4.84-4.84v-28.18Z"/>
        <rect class="cls-3" x="476.67" y="797.32" width="9.69" height="13.9"/>
        <rect class="cls-3" x="573" y="797.32" width="9.69" height="13.9"/>
      </g>
      <g>
        <rect class="cls-3" x="1526.97" y="756.23" width="133.08" height="43.2" rx="8" ry="8"/>
        <rect class="cls-3" x="1515.52" y="813.33" width="158.33" height="19.86" rx="8" ry="8"/>
      </g>
      <g>
        <path class="cls-3" d="M1543.36,833.2h-9.68v28.18c0,2.67,2.17,4.84,4.84,4.84h0c2.67,0,4.84-2.17,4.84-4.84v-28.18Z"/>
        <path class="cls-3" d="M1655.82,833.2h-9.68v28.18c0,2.67,2.17,4.84,4.84,4.84h0c2.67,0,4.84-2.17,4.84-4.84v-28.18Z"/>
        <rect class="cls-3" x="1541.37" y="799.43" width="9.69" height="13.9"/>
        <rect class="cls-3" x="1637.7" y="799.43" width="9.69" height="13.9"/>
      </g>
      <path class="cls-3" d="M59.5,808.92c-14.79-.13-50.94-5.94-46.48-78.13,3.3-53.53,28.06-86.29,46.48-86.4,18.42.11,43.18,32.87,46.48,86.4,4.46,72.19-31.69,78-46.48,78.13Z"/>
      <path class="cls-3" d="M83.71,732.7c-2.56-2.06-6.31-1.66-8.38.9l-10.03,12.44v-46.83c0-3.29-2.67-5.96-5.96-5.96s-5.96,2.67-5.96,5.96v48.3l-9.72-12.06c-2.06-2.56-5.82-2.97-8.38-.9-2.56,2.06-2.97,5.82-.9,8.38l19,23.58v89.94c0,3.29,2.67,5.96,5.96,5.96s5.96-2.67,5.96-5.96v-91.45c.09-.1.19-.2.28-.31l19.03-23.62c2.06-2.56,1.66-6.31-.9-8.38Z"/>
    </g>
    <rect class="cls-3" x="0" y="860.6" width="3000" height="39.4"/>
  </g>
  <g>
    <g id="day-2" data-name="day">
      <rect class="cls-1" x="3.4" y="3.85" width="2996.6" height="896.12"/>
      <g>
        <path class="cls-8" d="M1508.73,155.98s-8.44-3.23-6.7-16.88c1.74-13.66,10.18-35.75,28.8-37.49,0,0,12.41-.74,20.86,9.43,0,0,11.67-47.67,47.42-46.68,0,0,40.72-1.24,46.92,55.86,0,0,4.97-5.71,15.89-6.21s21.1,13.9,22.59,18.12c0,0,4.72,11.67,2.48,16.14s-5.21,7.7-9.43,7.7h-168.83Z"/>
        <path class="cls-8" d="M2121.39,264.18s-6.46-2.47-5.13-12.92,7.79-27.37,22.05-28.7c0,0,9.5-.57,15.96,7.22,0,0,8.93-36.49,36.3-35.73,0,0,31.17-.95,35.92,42.76,0,0,3.8-4.37,12.16-4.75,8.36-.38,16.15,10.64,17.29,13.87,0,0,3.61,8.93,1.9,12.35-1.71,3.42-3.99,5.89-7.22,5.89h-129.23Z"/>
        <path class="cls-8" d="M444.03,236.04s-8.44-3.23-6.7-16.88,10.18-35.75,28.8-37.49c0,0,12.41-.74,20.86,9.43,0,0,11.67-47.67,47.42-46.68,0,0,40.72-1.24,46.92,55.86,0,0,4.97-5.71,15.89-6.21,10.92-.5,21.1,13.9,22.59,18.12,0,0,4.72,11.67,2.48,16.14s-5.21,7.7-9.43,7.7h-168.83Z"/>
        <path class="cls-8" d="M794.59,140.9s-7.05-2.7-5.6-14.1,8.5-29.87,24.06-31.32c0,0,10.37-.62,17.42,7.88,0,0,9.75-39.82,39.61-38.99,0,0,34.01-1.04,39.2,46.66,0,0,4.15-4.77,13.27-5.18,9.13-.41,17.63,11.61,18.87,15.14,0,0,3.94,9.75,2.07,13.48-1.87,3.73-4.36,6.43-7.88,6.43h-141.03Z"/>
        <path class="cls-8" d="M3000.11,231.22v63.69h-101.78s-7.05-2.69-5.6-14.1c1.46-11.41,8.51-29.87,24.06-31.32,0,0,10.37-.62,17.42,7.88,0,0,9.75-39.82,39.62-38.99,0,0,14.73-.45,26.28,12.84Z"/>
        <path class="cls-8" d="M1806.85,302.45s-7.05-2.7-5.6-14.1,8.5-29.87,24.06-31.32c0,0,10.37-.62,17.42,7.88,0,0,9.75-39.82,39.61-38.99,0,0,34.01-1.04,39.2,46.66,0,0,4.15-4.77,13.27-5.18,9.13-.41,17.63,11.61,18.87,15.14,0,0,3.94,9.75,2.07,13.48-1.87,3.73-4.36,6.43-7.88,6.43h-141.03Z"/>
        <path class="cls-8" d="M118.6,334.3c-1.87,3.73-4.36,6.43-7.88,6.43H-.11v-42.35c1.96,1.14,3.92,2.69,5.68,4.81,0,0,9.74-39.82,39.61-38.99,0,0,34.01-1.04,39.2,46.66,0,0,4.15-4.77,13.27-5.18,9.13-.42,17.63,11.61,18.87,15.14,0,0,3.95,9.74,2.08,13.48Z"/>
        <path class="cls-8" d="M257.73,139.7s-5.44-2.08-4.32-10.88c1.12-8.8,6.56-23.05,18.57-24.17,0,0,8-.48,13.44,6.08,0,0,7.52-30.73,30.57-30.09,0,0,26.25-.8,30.25,36.01,0,0,3.2-3.68,10.24-4,7.04-.32,13.6,8.96,14.57,11.68,0,0,3.04,7.52,1.6,10.4-1.44,2.88-3.36,4.96-6.08,4.96h-108.84Z"/>
      </g>
      <circle class="cls-14" cx="2763.17" cy="159.42" r="69.51"/>
      <path class="cls-12" d="M2997.13,546.35v342.7H31.94v-369.4c43.06-181.68,120.71-320.6,209.34-320.6s170.72,147,212.96,336.33c41.07-85.12,92.19-139.44,147.61-139.44,102.43,0,190.17,185.48,226.84,408.09,13.67-293.02,123.01-625.49,243.75-625.49,91.19,0,180.87,205.67,221.93,436.06,44.79-129.59,108.95-219.36,180.2-219.36,99.13,0,184.52,173.78,223.16,386.81,31.54-284.48,148.64-543.4,288.26-543.4,101.67,0,191.38,137.27,244.83,321.73,40.31-228.08,127.55-430.4,221.73-430.4s184.37,213.78,224.29,449.57c43.79-110.44,102.58-184.31,167.21-184.31,57.92,0,111.14,59.31,153.08,151.11Z"/>
      <path class="cls-7" d="M3000,609.15v290.82H3.4v-369.41C46.61,348.89,124.52,209.97,213.45,209.97s171.31,147,213.69,336.33c41.2-85.12,92.5-139.44,148.11-139.44,102.77,0,190.81,185.48,227.61,408.08,13.71-293.01,123.42-625.49,244.57-625.49,91.5,0,181.48,205.67,222.69,436.06,44.94-129.59,109.32-219.35,180.8-219.35,99.47,0,185.15,173.78,223.92,386.81,31.65-284.48,149.15-543.4,289.24-543.4,102.01,0,192.03,137.27,245.66,321.73,40.44-228.08,127.98-430.4,222.49-430.4s184.99,213.78,225.04,449.57c43.94-110.44,102.93-184.31,167.78-184.31,68.44,0,130.35,82.27,174.94,202.99Z"/>
      <path class="cls-4" d="M2998.3,296.18v563.33l-1268.54-.43v.43l-1728.06-.59.12-14.23v-214.42h38.79v104.06c0,2.23,7.35,4.01,10.36,3.15v-178.68l20.34-.27,9.4-29.18,9.04,44.17,70.02-.93,7.62-39.02c6.71-.61,4.12,0,5.22,3.06,1.64,4.55,4.35,21.53,7.54,23.34l18.26.93v176.57h10.34v-107.2h51.74v29.44h18.11v-46.25h46.56v-129.28c0-.45-3.87-2.37-2.58-3.13l20.69-.02v-52.54h111.23v52.54h18.12s-2.3,219.51-2.3,219.51l6.18,3.46,9.03-3.29v-59.91h47.86c3.7-1.85,3.57-4.19,4-7.25,3.64-25.14-5.61-53.98-2.81-77.96.48-4.15.81-8.33,3.22-12.1,2.49-3.85,52.99-34.81,61.81-40.16,4.55-2.75,9.64-7.2,15.26-7.57v179.73c0,4.29,18.1,4.29,18.1,0v-97.75h20.7v-68.32l73.34-49.17c22.26,16.23,49.97,28.76,66.35,49.17v68.32c8.51-.78,19.7,2.61,25.86-3.16v-175.52h25.87v-33.63h36.22v-73.58h10.34v73.58h36.21v33.63h23.28v209.15l15.52,3.15v-73.56c1.9-.56,3.09,2.1,3.88,2.1h109.93l2.73,88.18,17.98.1v-124.01h69.83v102.99l14.4-1.96,1.12-16.96h43.97c3.91,13.62,3.09,29.04,2.73,43.18-.38,14.3-7.25,14.13,18.79,13.64,1.7-.42,4.36-4.72,4.36-5.31v-249.1h12.95c.68-4.69-1.45-11.15.38-15.46,1.49-3.53,14.57-6.64,11.04-18.33l11.75-2.02.19-12.47,12.84-3.23v-43.09h7.76v44.14c0,.53,9.18.63,11.7,4.17,4.94,6.98-5.8,10.34,13.06,12.5l1.08,14.88,10.4-.02,1.09,19.07,14.4,1.96v249.11l6.42,3.14c7.01-1.24,2.46-17.02,3.89-21.62.62-1.99,6.44-2.59,8.52-6.12,4.87-8.29.11-30.19,25.06-23.6,15.68,4.13,7.86,16.55,10.36,24.67.67,2.15,6.2,1.98,7.44,4.85,2.37,5.47-1.18,14.4.47,20.33.44,1.55,4.26,1.69,4.89,3.11,4.93,10.99,1.88,18.93.2,29.91l23.29.02v-77.78l15.16-.29c10.66-14.51-6.65-60.18,2.76-70.36,1.79-1.93,7.28-2.05,8-4.39,1.85-6.07-2.05-15.68.46-22.28,3.12-8.19,5.27-12.82,8.39-22.62,6.73-21.2,17.22-41.66,23.46-62.96,5.12-.85,3.76,1.54,5.01,4.22,5.05,10.86,16.76,43.18,18.91,54.1,1.31,6.64-.94,15.05.56,20.1.75,2.46,8.12,2.35,9.93,7.11,2.48,6.49-1.53,16.49.44,22.3.72,2.08,5.72,2.46,7.52,4.8,4.97,6.4,3.32,44.15,2.99,54.59-.45,14.17-9.32,16.77,17.98,15.68v134.53h20.69v-62.01c0-2.29,9.76-4.6,10.4-6.73,3.61-11.99-3.05-34.37.26-47.69l19.98-13.19.39-44.86c14.36,4.01,13.04-6.29,19.89-8.02,4.32-1.09,31.9-1.02,34.63.59,2.28,1.34,1.49,5.46,3.1,6.86,1.52,1.3,6.23,1,8.48,2.51,8.63,5.76.64,31.08,4.27,40.73,2.17,5.79,18.55,14.53,19.72,17.61,1.15,3.06,1.45,6.99,1.35,11.33-.22,10.72-2.82,23.91-.83,32.41.68,2.9,3.69,5.48,6.27,7.38v64.27c0,1.11,1.81,2.11,4.01,2.72,2.22.62,4.84.85,6.35.42v-178.68l20.34-.27,9.39-29.18,9.05,44.17,70.01-.93,7.63-39.02c6.7-.61,4.12,0,5.21,3.06,1.65,4.55,4.36,21.53,7.55,23.34l18.26.93v176.57h10.34v-107.2h51.74v29.44h18.1v-46.25h46.57v-129.28c0-.45-3.88-2.37-2.58-3.13l20.69-.02v-52.54h111.23v52.54h18.12s-2.3,219.51-2.3,219.51l6.18,3.46,9.03-3.29v-59.91h47.86c3.69-1.85,3.57-4.19,4-7.25,3.64-25.14-5.62-53.98-2.81-77.96.48-4.15.8-8.33,3.22-12.1,2.49-3.85,52.99-34.81,61.81-40.16,4.55-2.75,9.64-7.2,15.26-7.57v179.73c0,4.29,18.1,4.29,18.1,0v-97.75h20.69v-68.32l73.35-49.17c22.26,16.23,49.96,28.76,66.34,49.17v68.32c8.52-.78,19.71,2.61,25.87-3.16v-175.52h25.87v-33.63h36.22v-73.58h10.34v73.58h36.21v33.63h23.28v209.15l15.52,3.15v-73.56c1.9-.56,3.09,2.1,3.88,2.1h109.93l2.73,88.18,17.98.1v-124.01h69.83v102.99l14.4-1.96,1.12-16.96h43.97c3.91,13.62,3.09,29.04,2.73,43.18-.38,14.3-7.25,14.13,18.79,13.64,1.7-.42,4.36-4.72,4.36-5.31v-249.1h12.95c.67-4.69-1.45-11.15.38-15.46,1.49-3.53,14.57-6.64,11.04-18.33l11.74-2.02.2-12.47,12.84-3.23v-43.09h7.65Z"/>
      <path class="cls-2" d="M2999.78,687.6v169.86H.22v-82.45c.23-1.71.56-3.39.98-5.05,5.67-22.66,27.26-39.53,53.03-39.53,12.97,0,24.89,4.28,34.25,11.43,7.24-20.37,27.64-35.04,51.67-35.04s43.65,14.12,51.24,33.87c4.51-1.15,9.26-1.76,14.15-1.76,17.76,0,33.53,8.01,43.48,20.41-.48-2.72-.72-5.51-.72-8.35,0-28.38,24.39-51.38,54.49-51.38,9.71,0,18.84,2.39,26.73,6.6,9.99-11.4,25.1-18.66,42.02-18.66,27.03,0,49.46,18.56,53.75,42.9.24-.02.49-.02.74-.02,25.77,0,47.36,16.87,53.03,39.53h2.9c-.94-3.77-1.44-7.71-1.44-11.75,0-28.38,24.4-51.39,54.49-51.39,12.44,0,23.9,3.93,33.07,10.54,9.99-10.88,24.74-17.75,41.2-17.75,18.13,0,34.18,8.34,44.09,21.18,7.77-19.43,27.67-33.24,50.99-33.24,30.1,0,54.5,23,54.5,51.38,18.27,0,34.45,8.49,44.34,21.51,4.75-9.88,12.84-18.44,23.75-23.98,24.99-12.72,55.83-5.13,71.23,16.75,5.58-16.42,19.79-29.82,38.84-34.26,9.43-2.2,18.91-1.94,27.64.36,6.8-13.32,19.62-23.8,36.03-27.63,26.24-6.12,52.74,6.82,63.1,29.48.24-.07.48-.12.72-.18,29.21-6.81,58.75,10,65.98,37.55,1,3.82,1.52,7.65,1.59,11.43h7.54c4.71-10.11,12.9-18.88,24.01-24.53,8.55-4.35,17.79-6.32,26.85-6.16,3.06-14.5,12.71-27.66,27.59-35.23,23.78-12.09,52.87-5.81,68.9,13.7.21-.12.43-.23.64-.34,26.5-13.47,59.55-4.14,73.84,20.83,4.45,7.79,6.55,16.17,6.54,24.43,9.99-11.24,25-18.39,41.77-18.39,0-28.38,24.4-51.39,54.49-51.39,23.32,0,43.23,13.82,50.99,33.25,9.91-12.84,25.97-21.19,44.1-21.19,16.45,0,31.21,6.88,41.2,17.75,9.17-6.61,20.63-10.53,33.06-10.53,26.22,0,48.11,17.46,53.31,40.73,5.2-23.27,27.09-40.73,53.31-40.73,12.43,0,23.89,3.92,33.06,10.53,9.99-10.87,24.75-17.75,41.2-17.75,18.13,0,34.19,8.35,44.1,21.19,7.76-19.43,27.67-33.25,50.99-33.25,30.09,0,54.49,23.01,54.49,51.39,16.77,0,31.78,7.15,41.77,18.39-.01-8.26,2.09-16.64,6.54-24.43,14.29-24.97,47.34-34.3,73.84-20.83.21.11.43.22.64.34,16.03-19.51,45.12-25.79,68.9-13.7,14.88,7.57,24.53,20.73,27.59,35.23,9.06-.16,18.3,1.81,26.85,6.16,11.11,5.65,19.3,14.42,24.01,24.53h7.54c.07-3.78.59-7.61,1.59-11.43,7.23-27.55,36.77-44.36,65.98-37.55.24.06.48.11.72.18,10.36-22.66,36.86-35.6,63.1-29.48,16.41,3.83,29.23,14.31,36.03,27.63,8.73-2.3,18.21-2.56,27.64-.36,19.05,4.44,33.26,17.84,38.84,34.26,15.4-21.88,46.24-29.47,71.23-16.75,10.91,5.54,19,14.1,23.75,23.98,9.89-13.02,26.07-21.51,44.34-21.51,0-28.38,24.4-51.38,54.5-51.38,23.32,0,43.22,13.81,50.99,33.24,9.91-12.84,25.96-21.18,44.09-21.18,16.46,0,31.21,6.87,41.2,17.75,9.17-6.61,20.63-10.54,33.07-10.54,30.09,0,54.49,23.01,54.49,51.39,0,4.04-.5,7.98-1.44,11.75h2.9c5.67-22.66,27.26-39.53,53.03-39.53.25,0,.5,0,.74.02,4.16-23.59,25.35-41.75,51.26-42.85Z"/>
      <path class="cls-11" d="M2997.13,736.22v158.48H2.87v-76.93c.23-1.6.56-3.16.98-4.71,5.66-21.14,27.21-36.88,52.94-36.88,12.95,0,24.85,3.99,34.19,10.66,7.23-19.01,27.59-32.69,51.58-32.69s43.57,13.17,51.15,31.6c4.5-1.07,9.24-1.64,14.13-1.64,17.73,0,33.47,7.47,43.4,19.04-.48-2.54-.72-5.14-.72-7.79,0-26.48,24.35-47.94,54.39-47.94,9.69,0,18.81,2.23,26.68,6.16,9.97-10.64,25.06-17.41,41.95-17.41,26.98,0,49.37,17.32,53.65,40.03.24-.02.49-.02.74-.02,25.72,0,47.28,15.74,52.94,36.88h2.89c-.94-3.52-1.44-7.19-1.44-10.96,0-26.48,24.36-47.95,54.39-47.95,12.42,0,23.86,3.67,33.01,9.83,9.97-10.15,24.7-16.56,41.13-16.56,18.1,0,34.12,7.78,44.01,19.76,7.76-18.13,27.62-31.01,50.9-31.01,30.05,0,54.4,21.46,54.4,47.94,18.24,0,34.39,7.92,44.26,20.07,4.74-9.22,12.82-17.2,23.71-22.37,24.95-11.87,55.73-4.79,71.1,15.63,5.57-15.32,19.76-27.82,38.77-31.96,9.41-2.05,18.88-1.81,27.59.34,6.79-12.43,19.59-22.21,35.97-25.78,26.19-5.71,52.65,6.36,62.99,27.51.24-.07.48-.11.72-.17,29.16-6.35,58.65,9.33,65.86,35.03,1,3.56,1.52,7.14,1.59,10.66h7.53c4.7-9.43,12.88-17.62,23.97-22.89,8.53-4.06,17.76-5.9,26.8-5.75,3.05-13.53,12.69-25.81,27.54-32.87,23.74-11.28,52.78-5.42,68.78,12.78.21-.11.43-.21.64-.32,26.45-12.57,59.44-3.86,73.71,19.43,4.44,7.27,6.54,15.09,6.53,22.79,9.97-10.49,24.96-17.16,41.7-17.16,0-26.48,24.36-47.95,54.39-47.95,23.28,0,43.15,12.89,50.9,31.02,9.89-11.98,25.92-19.77,44.02-19.77,16.42,0,31.15,6.42,41.13,16.56,9.15-6.17,20.59-9.82,33-9.82,26.17,0,48.02,16.29,53.22,38,5.19-21.71,27.04-38,53.22-38,12.41,0,23.85,3.66,33,9.82,9.97-10.14,24.71-16.56,41.13-16.56,18.1,0,34.13,7.79,44.02,19.77,7.75-18.13,27.62-31.02,50.9-31.02,30.04,0,54.39,21.47,54.39,47.95,16.74,0,31.72,6.67,41.7,17.16,0-7.71,2.09-15.53,6.53-22.79,14.26-23.3,47.26-32,73.71-19.43.21.1.43.21.64.32,16-18.2,45.04-24.06,68.78-12.78,14.85,7.06,24.49,19.34,27.54,32.87,9.04-.15,18.27,1.69,26.8,5.75,11.09,5.27,19.27,13.45,23.97,22.89h7.53c.07-3.53.59-7.1,1.59-10.66,7.22-25.7,36.7-41.39,65.86-35.03.24.06.48.1.72.17,10.34-21.14,36.79-33.22,62.99-27.51,16.38,3.57,29.18,13.35,35.97,25.78,8.71-2.15,18.18-2.39,27.59-.34,19.02,4.14,33.2,16.64,38.77,31.96,15.37-20.41,46.16-27.5,71.1-15.63,10.89,5.17,18.97,13.16,23.71,22.37,9.87-12.15,26.02-20.07,44.26-20.07,0-26.48,24.36-47.94,54.4-47.94,23.28,0,43.14,12.88,50.9,31.01,9.89-11.98,25.91-19.76,44.01-19.76,16.43,0,31.15,6.41,41.13,16.56,9.15-6.17,20.59-9.83,33.01-9.83,30.04,0,54.39,21.47,54.39,47.95,0,3.77-.5,7.45-1.44,10.96h2.9c5.66-21.14,27.21-36.88,52.94-36.88.25,0,.5,0,.74.02,4.15-22.01,25.3-38.95,51.17-39.98Z"/>
    </g>
    <g id="extras-2" data-name="extras">
      <path class="cls-6" d="M1106.35,820.33c-11.94-.1-41.11-4.79-37.51-63.05,2.66-43.2,22.65-69.64,37.51-69.73,14.87.09,34.85,26.53,37.51,69.73,3.6,58.26-25.58,62.95-37.51,63.05Z"/>
      <path class="cls-10" d="M1125.89,763.39c-2.07-1.67-5.1-1.34-6.76.73l-8.09,10.04v-37.79c0-2.66-2.15-4.81-4.81-4.81s-4.81,2.15-4.81,4.81v38.98l-7.85-9.74c-1.67-2.07-4.69-2.39-6.76-.73-2.07,1.67-2.39,4.69-.73,6.76l15.33,19.03v72.59c0,2.66,2.15,4.81,4.81,4.81s4.81-2.15,4.81-4.81v-73.8c.08-.08.15-.16.22-.25l15.36-19.06c1.67-2.07,1.34-5.1-.73-6.76Z"/>
      <g>
        <rect class="cls-9" x="462.27" y="754.12" width="133.08" height="43.2" rx="8" ry="8"/>
        <rect class="cls-9" x="450.83" y="811.22" width="158.33" height="19.86" rx="8" ry="8"/>
      </g>
      <g>
        <path class="cls-5" d="M478.66,831.09h-9.68v28.18c0,2.67,2.17,4.84,4.84,4.84h0c2.67,0,4.84-2.17,4.84-4.84v-28.18Z"/>
        <path class="cls-5" d="M591.13,831.09h-9.68v28.18c0,2.67,2.17,4.84,4.84,4.84h0c2.67,0,4.84-2.17,4.84-4.84v-28.18Z"/>
        <rect class="cls-5" x="476.67" y="797.32" width="9.69" height="13.9"/>
        <rect class="cls-5" x="573" y="797.32" width="9.69" height="13.9"/>
      </g>
      <g>
        <rect class="cls-9" x="1526.97" y="756.23" width="133.08" height="43.2" rx="8" ry="8"/>
        <rect class="cls-9" x="1515.52" y="813.33" width="158.33" height="19.86" rx="8" ry="8"/>
      </g>
      <g>
        <path class="cls-5" d="M1543.36,833.2h-9.68v28.18c0,2.67,2.17,4.84,4.84,4.84h0c2.67,0,4.84-2.17,4.84-4.84v-28.18Z"/>
        <path class="cls-5" d="M1655.82,833.2h-9.68v28.18c0,2.67,2.17,4.84,4.84,4.84h0c2.67,0,4.84-2.17,4.84-4.84v-28.18Z"/>
        <rect class="cls-5" x="1541.37" y="799.43" width="9.69" height="13.9"/>
        <rect class="cls-5" x="1637.7" y="799.43" width="9.69" height="13.9"/>
      </g>
      <path class="cls-6" d="M59.5,808.92c-14.79-.13-50.94-5.94-46.48-78.13,3.3-53.53,28.06-86.29,46.48-86.4,18.42.11,43.18,32.87,46.48,86.4,4.46,72.19-31.69,78-46.48,78.13Z"/>
      <path class="cls-10" d="M83.71,732.7c-2.56-2.06-6.31-1.66-8.38.9l-10.03,12.44v-46.83c0-3.29-2.67-5.96-5.96-5.96s-5.96,2.67-5.96,5.96v48.3l-9.72-12.06c-2.06-2.56-5.82-2.97-8.38-.9-2.56,2.06-2.97,5.82-.9,8.38l19,23.58v89.94c0,3.29,2.67,5.96,5.96,5.96s5.96-2.67,5.96-5.96v-91.45c.09-.1.19-.2.28-.31l19.03-23.62c2.06-2.56,1.66-6.31-.9-8.38Z"/>
    </g>
    <rect class="cls-13" x="0" y="860.6" width="3000" height="39.4"/>
  </g>
</svg>