<svg width="35" height="35" viewBox="0 0 35 35" fill="none" xmlns="http://www.w3.org/2000/svg">
<path d="M33.25 3.5H28V1.75C28 1.28587 27.8156 0.840752 27.4874 0.512563C27.1592 0.184374 26.7141 0 26.25 0H8.75C8.28587 0 7.84075 0.184374 7.51256 0.512563C7.18438 0.840752 7 1.28587 7 1.75V3.5H1.75C1.28587 3.5 0.840752 3.68438 0.512563 4.01256C0.184374 4.34075 0 4.78587 0 5.25V10.5C0 12.3565 0.737498 14.137 2.05025 15.4497C3.36301 16.7625 5.14348 17.5 7 17.5H9.695C11.2779 19.266 13.4121 20.4441 15.75 20.8425V24.5H14C12.6076 24.5 11.2723 25.0531 10.2877 26.0377C9.30312 27.0223 8.75 28.3576 8.75 29.75V33.25C8.75 33.7141 8.93438 34.1592 9.26256 34.4874C9.59075 34.8156 10.0359 35 10.5 35H24.5C24.9641 35 25.4092 34.8156 25.7374 34.4874C26.0656 34.1592 26.25 33.7141 26.25 33.25V29.75C26.25 28.3576 25.6969 27.0223 24.7123 26.0377C23.7277 25.0531 22.3924 24.5 21 24.5H19.25V20.8425C21.5879 20.4441 23.7221 19.266 25.305 17.5H28C29.8565 17.5 31.637 16.7625 32.9497 15.4497C34.2625 14.137 35 12.3565 35 10.5V5.25C35 4.78587 34.8156 4.34075 34.4874 4.01256C34.1592 3.68438 33.7141 3.5 33.25 3.5ZM7 14C6.07174 14 5.1815 13.6312 4.52513 12.9749C3.86875 12.3185 3.5 11.4283 3.5 10.5V7H7V10.5C7.00385 11.693 7.21098 12.8766 7.6125 14H7ZM21 28C21.4641 28 21.9092 28.1844 22.2374 28.5126C22.5656 28.8408 22.75 29.2859 22.75 29.75V31.5H12.25V29.75C12.25 29.2859 12.4344 28.8408 12.7626 28.5126C13.0908 28.1844 13.5359 28 14 28H21ZM24.5 10.5C24.5 12.3565 23.7625 14.137 22.4497 15.4497C21.137 16.7625 19.3565 17.5 17.5 17.5C15.6435 17.5 13.863 16.7625 12.5503 15.4497C11.2375 14.137 10.5 12.3565 10.5 10.5V3.5H24.5V10.5ZM31.5 10.5C31.5 11.4283 31.1312 12.3185 30.4749 12.9749C29.8185 13.6312 28.9283 14 28 14H27.3875C27.789 12.8766 27.9961 11.693 28 10.5V7H31.5V10.5Z" fill="white"/>
</svg>
