<svg width="30" height="30" viewBox="0 0 30 30" fill="none" xmlns="http://www.w3.org/2000/svg">
<path d="M27.7083 2.91667H23.3333V1.45833C23.3333 1.07156 23.1797 0.700626 22.9062 0.427136C22.6327 0.153645 22.2618 0 21.875 0H7.29167C6.90489 0 6.53396 0.153645 6.26047 0.427136C5.98698 0.700626 5.83333 1.07156 5.83333 1.45833V2.91667H1.45833C1.07156 2.91667 0.700626 3.07031 0.427136 3.3438C0.153645 3.61729 0 3.98823 0 4.375V8.75C0 10.2971 0.614582 11.7808 1.70854 12.8748C2.80251 13.9688 4.28624 14.5833 5.83333 14.5833H8.07917C9.39828 16.055 11.1768 17.0368 13.125 17.3687V20.4167H11.6667C10.5063 20.4167 9.39355 20.8776 8.57307 21.6981C7.7526 22.5185 7.29167 23.6313 7.29167 24.7917V27.7083C7.29167 28.0951 7.44531 28.466 7.7188 28.7395C7.99229 29.013 8.36323 29.1667 8.75 29.1667H20.4167C20.8034 29.1667 21.1744 29.013 21.4479 28.7395C21.7214 28.466 21.875 28.0951 21.875 27.7083V24.7917C21.875 23.6313 21.4141 22.5185 20.5936 21.6981C19.7731 20.8776 18.6603 20.4167 17.5 20.4167H16.0417V17.3687C17.9899 17.0368 19.7684 16.055 21.0875 14.5833H23.3333C24.8804 14.5833 26.3642 13.9688 27.4581 12.8748C28.5521 11.7808 29.1667 10.2971 29.1667 8.75V4.375C29.1667 3.98823 29.013 3.61729 28.7395 3.3438C28.466 3.07031 28.0951 2.91667 27.7083 2.91667ZM5.83333 11.6667C5.05978 11.6667 4.31792 11.3594 3.77094 10.8124C3.22396 10.2654 2.91667 9.52355 2.91667 8.75V5.83333H5.83333V8.75C5.83654 9.74416 6.00915 10.7305 6.34375 11.6667H5.83333ZM17.5 23.3333C17.8868 23.3333 18.2577 23.487 18.5312 23.7605C18.8047 24.034 18.9583 24.4049 18.9583 24.7917V26.25H10.2083V24.7917C10.2083 24.4049 10.362 24.034 10.6355 23.7605C10.909 23.487 11.2799 23.3333 11.6667 23.3333H17.5ZM20.4167 8.75C20.4167 10.2971 19.8021 11.7808 18.7081 12.8748C17.6142 13.9688 16.1304 14.5833 14.5833 14.5833C13.0362 14.5833 11.5525 13.9688 10.4585 12.8748C9.36458 11.7808 8.75 10.2971 8.75 8.75V2.91667H20.4167V8.75ZM26.25 8.75C26.25 9.52355 25.9427 10.2654 25.3957 10.8124C24.8487 11.3594 24.1069 11.6667 23.3333 11.6667H22.8229C23.1575 10.7305 23.3301 9.74416 23.3333 8.75V5.83333H26.25V8.75Z" fill="#FFD700"/>
</svg>
