<?xml version="1.0" encoding="UTF-8"?>
<svg id="Layer_3" data-name="Layer 3" xmlns="http://www.w3.org/2000/svg" viewBox="0 0 429.71 543.79">
  <defs>
    <style>
      .cls-1 {
        fill: #fcf0f3;
      }

      .cls-2 {
        fill: #f5c3cf;
      }

      .cls-3 {
        fill: #e36888;
      }
    </style>
  </defs>
  <rect class="cls-3" x="75.5" y="157.8" width="289.04" height="315.1" rx="4" ry="4"/>
  <path class="cls-2" d="M378.53,162.28H60.32c-7.66.06-13.32-11.18-5.96-21.83l38.21-59.27c1.76-3.21,5.09-5.18,8.69-5.18h236.35c3.6,0,6.92,1.97,8.69,5.18l38.21,59.27c7.35,10.64,1.69,21.89-5.96,21.83Z"/>
  <path class="cls-1" d="M187.96,345.39h64.12c5.52,0,10,4.48,10,10v117.5h-84.12v-117.5c0-5.52,4.48-10,10-10Z"/>
  <rect class="cls-1" x="126.18" y="206.59" width="57.52" height="75.33" rx="6.46" ry="6.46"/>
  <rect class="cls-1" x="254.67" y="206.59" width="57.52" height="75.33" rx="6.46" ry="6.46"/>
</svg>