<svg width="197" height="35" viewBox="0 0 197 35" fill="none" xmlns="http://www.w3.org/2000/svg">
<path d="M10.955 28.42C9.01833 28.42 7.14 28.1633 5.32 27.65C3.52333 27.1133 2.07667 26.425 0.98 25.585L2.905 21.315C3.955 22.085 5.20333 22.7033 6.65 23.17C8.09667 23.6367 9.54333 23.87 10.99 23.87C12.6 23.87 13.79 23.6367 14.56 23.17C15.33 22.68 15.715 22.0383 15.715 21.245C15.715 20.6617 15.4817 20.1833 15.015 19.81C14.5717 19.4133 13.9883 19.0983 13.265 18.865C12.565 18.6317 11.6083 18.375 10.395 18.095C8.52833 17.6517 7 17.2083 5.81 16.765C4.62 16.3217 3.59333 15.61 2.73 14.63C1.89 13.65 1.47 12.3433 1.47 10.71C1.47 9.28667 1.855 8.00333 2.625 6.86C3.395 5.69333 4.55 4.77167 6.09 4.095C7.65333 3.41833 9.555 3.08 11.795 3.08C13.3583 3.08 14.8867 3.26667 16.38 3.64C17.8733 4.01333 19.18 4.55 20.3 5.25L18.55 9.555C16.2867 8.27167 14.0233 7.63 11.76 7.63C10.1733 7.63 8.995 7.88667 8.225 8.4C7.47833 8.91333 7.105 9.59 7.105 10.43C7.105 11.27 7.53667 11.9 8.4 12.32C9.28667 12.7167 10.6283 13.1133 12.425 13.51C14.2917 13.9533 15.82 14.3967 17.01 14.84C18.2 15.2833 19.215 15.9833 20.055 16.94C20.9183 17.8967 21.35 19.1917 21.35 20.825C21.35 22.225 20.9533 23.5083 20.16 24.675C19.39 25.8183 18.2233 26.7283 16.66 27.405C15.0967 28.0817 13.195 28.42 10.955 28.42ZM34.8493 28.28C32.866 28.28 31.081 27.8717 29.4943 27.055C27.931 26.215 26.706 25.06 25.8193 23.59C24.9327 22.12 24.4893 20.4517 24.4893 18.585C24.4893 16.7183 24.9327 15.05 25.8193 13.58C26.706 12.11 27.931 10.9667 29.4943 10.15C31.081 9.31 32.866 8.89 34.8493 8.89C36.8327 8.89 38.606 9.31 40.1693 10.15C41.7327 10.9667 42.9577 12.11 43.8443 13.58C44.731 15.05 45.1743 16.7183 45.1743 18.585C45.1743 20.4517 44.731 22.12 43.8443 23.59C42.9577 25.06 41.7327 26.215 40.1693 27.055C38.606 27.8717 36.8327 28.28 34.8493 28.28ZM34.8493 23.8C36.2493 23.8 37.3927 23.3333 38.2793 22.4C39.1893 21.4433 39.6443 20.1717 39.6443 18.585C39.6443 16.9983 39.1893 15.7383 38.2793 14.805C37.3927 13.8483 36.2493 13.37 34.8493 13.37C33.4493 13.37 32.2943 13.8483 31.3843 14.805C30.4743 15.7383 30.0193 16.9983 30.0193 18.585C30.0193 20.1717 30.4743 21.4433 31.3843 22.4C32.2943 23.3333 33.4493 23.8 34.8493 23.8ZM58.9739 28.28C56.9672 28.28 55.1589 27.8717 53.5489 27.055C51.9622 26.215 50.7139 25.06 49.8039 23.59C48.9172 22.12 48.4739 20.4517 48.4739 18.585C48.4739 16.7183 48.9172 15.05 49.8039 13.58C50.7139 12.11 51.9622 10.9667 53.5489 10.15C55.1589 9.31 56.9672 8.89 58.9739 8.89C60.9572 8.89 62.6839 9.31 64.1539 10.15C65.6472 10.9667 66.7322 12.145 67.4089 13.685L63.1739 15.96C62.1939 14.2333 60.7822 13.37 58.9389 13.37C57.5156 13.37 56.3372 13.8367 55.4039 14.77C54.4706 15.7033 54.0039 16.975 54.0039 18.585C54.0039 20.195 54.4706 21.4667 55.4039 22.4C56.3372 23.3333 57.5156 23.8 58.9389 23.8C60.8056 23.8 62.2172 22.9367 63.1739 21.21L67.4089 23.52C66.7322 25.0133 65.6472 26.18 64.1539 27.02C62.6839 27.86 60.9572 28.28 58.9739 28.28ZM71.6026 9.17H77.0626V28H71.6026V9.17ZM74.3326 6.545C73.3293 6.545 72.5126 6.25333 71.8826 5.67C71.2526 5.08667 70.9376 4.36333 70.9376 3.5C70.9376 2.63666 71.2526 1.91333 71.8826 1.33C72.5126 0.746665 73.3293 0.454998 74.3326 0.454998C75.336 0.454998 76.1526 0.734998 76.7826 1.295C77.4126 1.855 77.7276 2.555 77.7276 3.395C77.7276 4.305 77.4126 5.06333 76.7826 5.67C76.1526 6.25333 75.336 6.545 74.3326 6.545Z" fill="#6297CB"/>
<path d="M92.14 28.28C90.1566 28.28 88.3716 27.8717 86.785 27.055C85.2216 26.215 83.9966 25.06 83.11 23.59C82.2233 22.12 81.78 20.4517 81.78 18.585C81.78 16.7183 82.2233 15.05 83.11 13.58C83.9966 12.11 85.2216 10.9667 86.785 10.15C88.3716 9.31 90.1566 8.89 92.14 8.89C94.1233 8.89 95.8966 9.31 97.46 10.15C99.0233 10.9667 100.248 12.11 101.135 13.58C102.022 15.05 102.465 16.7183 102.465 18.585C102.465 20.4517 102.022 22.12 101.135 23.59C100.248 25.06 99.0233 26.215 97.46 27.055C95.8966 27.8717 94.1233 28.28 92.14 28.28ZM92.14 23.8C93.54 23.8 94.6833 23.3333 95.57 22.4C96.48 21.4433 96.935 20.1717 96.935 18.585C96.935 16.9983 96.48 15.7383 95.57 14.805C94.6833 13.8483 93.54 13.37 92.14 13.37C90.74 13.37 89.585 13.8483 88.675 14.805C87.765 15.7383 87.31 16.9983 87.31 18.585C87.31 20.1717 87.765 21.4433 88.675 22.4C89.585 23.3333 90.74 23.8 92.14 23.8ZM118.295 8.89C120.045 8.89 121.631 9.29833 123.055 10.115C124.501 10.9083 125.633 12.04 126.45 13.51C127.266 14.9567 127.675 16.6483 127.675 18.585C127.675 20.5217 127.266 22.225 126.45 23.695C125.633 25.1417 124.501 26.2733 123.055 27.09C121.631 27.8833 120.045 28.28 118.295 28.28C115.891 28.28 114.001 27.5217 112.625 26.005V34.79H107.165V9.17H112.38V11.34C113.733 9.70667 115.705 8.89 118.295 8.89ZM117.35 23.8C118.75 23.8 119.893 23.3333 120.78 22.4C121.69 21.4433 122.145 20.1717 122.145 18.585C122.145 16.9983 121.69 15.7383 120.78 14.805C119.893 13.8483 118.75 13.37 117.35 13.37C115.95 13.37 114.795 13.8483 113.885 14.805C112.998 15.7383 112.555 16.9983 112.555 18.585C112.555 20.1717 112.998 21.4433 113.885 22.4C114.795 23.3333 115.95 23.8 117.35 23.8ZM141.34 28.28C139.356 28.28 137.571 27.8717 135.985 27.055C134.421 26.215 133.196 25.06 132.31 23.59C131.423 22.12 130.98 20.4517 130.98 18.585C130.98 16.7183 131.423 15.05 132.31 13.58C133.196 12.11 134.421 10.9667 135.985 10.15C137.571 9.31 139.356 8.89 141.34 8.89C143.323 8.89 145.096 9.31 146.66 10.15C148.223 10.9667 149.448 12.11 150.335 13.58C151.221 15.05 151.665 16.7183 151.665 18.585C151.665 20.4517 151.221 22.12 150.335 23.59C149.448 25.06 148.223 26.215 146.66 27.055C145.096 27.8717 143.323 28.28 141.34 28.28ZM141.34 23.8C142.74 23.8 143.883 23.3333 144.77 22.4C145.68 21.4433 146.135 20.1717 146.135 18.585C146.135 16.9983 145.68 15.7383 144.77 14.805C143.883 13.8483 142.74 13.37 141.34 13.37C139.94 13.37 138.785 13.8483 137.875 14.805C136.965 15.7383 136.51 16.9983 136.51 18.585C136.51 20.1717 136.965 21.4433 137.875 22.4C138.785 23.3333 139.94 23.8 141.34 23.8ZM163.119 28.28C160.996 28.28 159.339 27.72 158.149 26.6C156.959 25.4567 156.364 23.8467 156.364 21.77V2.03H161.824V21.455C161.824 22.2483 162.022 22.8667 162.419 23.31C162.839 23.73 163.422 23.94 164.169 23.94C164.449 23.94 164.729 23.905 165.009 23.835C165.312 23.765 165.546 23.6833 165.709 23.59L165.954 27.825C165.044 28.1283 164.099 28.28 163.119 28.28ZM169.685 9.17H175.145V28H169.685V9.17ZM172.415 6.545C171.411 6.545 170.595 6.25333 169.965 5.67C169.335 5.08667 169.02 4.36333 169.02 3.5C169.02 2.63666 169.335 1.91333 169.965 1.33C170.595 0.746665 171.411 0.454998 172.415 0.454998C173.418 0.454998 174.235 0.734998 174.865 1.295C175.495 1.855 175.81 2.555 175.81 3.395C175.81 4.305 175.495 5.06333 174.865 5.67C174.235 6.25333 173.418 6.545 172.415 6.545ZM187.597 28.28C186.034 28.28 184.505 28.0933 183.012 27.72C181.519 27.3233 180.329 26.8333 179.442 26.25L181.262 22.33C182.102 22.8667 183.117 23.31 184.307 23.66C185.497 23.9867 186.664 24.15 187.807 24.15C190.117 24.15 191.272 23.5783 191.272 22.435C191.272 21.8983 190.957 21.5133 190.327 21.28C189.697 21.0467 188.729 20.8483 187.422 20.685C185.882 20.4517 184.61 20.1833 183.607 19.88C182.604 19.5767 181.729 19.04 180.982 18.27C180.259 17.5 179.897 16.4033 179.897 14.98C179.897 13.79 180.235 12.74 180.912 11.83C181.612 10.8967 182.615 10.1733 183.922 9.66C185.252 9.14667 186.815 8.89 188.612 8.89C189.942 8.89 191.26 9.04167 192.567 9.345C193.897 9.625 194.994 10.0217 195.857 10.535L194.037 14.42C192.38 13.4867 190.572 13.02 188.612 13.02C187.445 13.02 186.57 13.1833 185.987 13.51C185.404 13.8367 185.112 14.2567 185.112 14.77C185.112 15.3533 185.427 15.7617 186.057 15.995C186.687 16.2283 187.69 16.45 189.067 16.66C190.607 16.9167 191.867 17.1967 192.847 17.5C193.827 17.78 194.679 18.305 195.402 19.075C196.125 19.845 196.487 20.9183 196.487 22.295C196.487 23.4617 196.137 24.5 195.437 25.41C194.737 26.32 193.71 27.0317 192.357 27.545C191.027 28.035 189.44 28.28 187.597 28.28Z" fill="#283D52"/>
</svg>
