<?xml version="1.0" encoding="UTF-8"?>
<svg id="Layer_3" data-name="Layer 3" xmlns="http://www.w3.org/2000/svg" viewBox="0 0 429.71 543.79">
  <defs>
    <style>
      .cls-1 {
        fill: #f3d990;
      }

      .cls-2 {
        fill: #f7b066;
      }

      .cls-3 {
        fill: #f2d88f;
      }

      .cls-4 {
        fill: #fde8d3;
      }

      .cls-5 {
        fill: #dbc382;
      }
    </style>
  </defs>
  <rect class="cls-3" x="77.71" y="211.01" width="266.97" height="226.12" rx="8" ry="8"/>
  <rect class="cls-5" x="77.71" y="201.28" width="266.97" height="58.86"/>
  <g>
    <path class="cls-1" d="M183.04,126.69l52.07.04s6.84,74.31,9.82,98.5c1.4,11.36-7.03,30.41-34.47,30-25.9-.39-35.25-21.97-33.64-42.13,1.81-22.7,6.23-86.41,6.23-86.41Z"/>
    <path class="cls-1" d="M114.93,217.68c2.34-10.65,18.29-90.51,18.29-90.51l-37.47-.44c-6.52-.05-12.41,3.37-14.89,9.32,0,0-20.38,58.47-26.18,78.31-3.47,11.89-1.58,36.99,25.61,36.99,29.29,0,32-21.68,34.64-33.67Z"/>
    <path class="cls-1" d="M344,136.63c-2.49-5.87-8.38-9.67-14.89-9.62h-40.27s17.65,82.54,20.38,93.37c3.46,13.7,10.96,33.4,39.54,33.4,19.69,0,35.37-19.22,23.41-44.59-10.02-21.26-28.18-72.55-28.18-72.55Z"/>
    <path class="cls-2" d="M183.04,126.69l-49.81.48s-16.96,79.13-17.53,87.27c-.68,9.64-6.19,39.03,26.56,40.27,33.29,1.25,34.33-28.97,34.27-36.34-.08-8.89,6.51-91.69,6.51-91.69Z"/>
    <path class="cls-2" d="M288.83,127s19.48,77.44,21.38,97.44c1.07,11.19-4.04,29.63-29.42,29.63-27.76,0-34.12-13.94-36.11-30.93-2.11-17.95-9.58-96.41-9.58-96.41l53.73.26Z"/>
  </g>
  <path class="cls-4" d="M129.95,295.81h50.66c5.52,0,10,4.48,10,10v131.32h-70.66v-131.32c0-5.52,4.48-10,10-10Z"/>
  <rect class="cls-4" x="223.11" y="295.81" width="79.07" height="75.97" rx="6.46" ry="6.46"/>
</svg>