<svg width="265" height="305" viewBox="0 0 265 305" fill="none" xmlns="http://www.w3.org/2000/svg">
<path d="M127.933 304.1C197.719 304.1 254.292 291.685 254.292 276.37C254.292 261.055 197.719 248.64 127.933 248.64C58.1474 248.64 1.57471 261.055 1.57471 276.37C1.57471 291.685 58.1474 304.1 127.933 304.1Z" fill="#DFDFDF"/>
<path d="M210.171 234.848C199.992 217.546 179.416 210.738 164.215 219.64C149.013 228.543 145.91 249.251 155.115 267.086C167.998 292.043 186.328 292.08 201.529 283.178C216.73 274.275 220.346 252.151 210.167 234.848H210.171Z" fill="#91922C"/>
<path d="M126.35 258.364C129.265 238.514 117.49 220.357 100.046 217.805C82.6028 215.254 67.1917 229.469 63.1856 249.126C57.5755 276.634 71.8486 288.109 89.2922 290.66C106.736 293.211 123.436 278.209 126.35 258.364Z" fill="#91922C"/>
<path d="M264.845 128.977C264.845 201.358 206.031 260.035 133.481 260.035C60.9308 260.035 0.705566 203.855 0.705566 131.473C0.705566 59.0922 60.2253 0 132.775 0C205.325 0 264.845 56.5953 264.845 128.977Z" fill="#B5B637"/>
<path d="M46.4057 228.732C43.7476 226.482 42.8657 225.493 42.8657 225.493C47.3631 221.714 52.3895 217.734 53.5695 212.221C54.0776 209.845 54.2204 207.512 54.0398 205.279C54.3758 206.678 54.5815 208.161 54.6361 209.724C54.8713 216.591 51.3523 223.055 46.4057 228.732Z" fill="#91922C"/>
<path d="M53.4813 208.132C53.4813 222.179 37.0623 237.462 22.9865 237.462C8.91074 237.462 0 227.479 0 213.436C0 199.393 12.6648 183.339 26.7406 183.339C40.8164 183.339 53.4813 194.085 53.4813 208.132Z" fill="#B5B637"/>
<path d="M142.622 234.031C205.154 234.031 255.846 184.296 255.846 122.944C255.846 61.5917 205.154 11.8561 142.622 11.8561C80.0906 11.8561 29.3987 61.5917 29.3987 122.944C29.3987 184.296 80.0906 234.031 142.622 234.031Z" fill="#D3D486"/>
<path d="M244.248 104.003C244.248 125.725 231.314 141.566 209.621 141.566C187.928 141.566 173.545 125.788 171.055 104.079C168.582 82.4987 184.741 62.67 208.374 64.748C229.983 66.6458 244.243 82.2808 244.243 104.003H244.248Z" fill="white"/>
<path d="M81.8135 103.932C81.8135 125.696 98.9883 143.233 120.807 143.233C142.627 143.233 157.714 127.749 160.217 105.997C162.703 84.3756 143.744 61.4802 117.889 64.6013C96.2336 67.2156 81.8177 82.1677 81.8177 103.936L81.8135 103.932Z" fill="white"/>
<path d="M205.592 131.521C219.89 129.669 229.925 116.218 228.006 101.478C226.088 86.7379 212.941 76.2908 198.643 78.1435C184.345 79.9962 174.309 93.4471 176.228 108.187C178.147 122.927 191.294 133.374 205.592 131.521Z" fill="#363611"/>
<path d="M129.101 132.504C144.004 132.504 156.085 120.451 156.085 105.583C156.085 90.7143 144.004 78.6611 129.101 78.6611C114.198 78.6611 102.117 90.7143 102.117 105.583C102.117 120.451 114.198 132.504 129.101 132.504Z" fill="#363611"/>
<path d="M131.347 120.836C140.253 120.836 147.472 113.634 147.472 104.749C147.472 95.864 140.253 88.6614 131.347 88.6614C122.442 88.6614 115.222 95.864 115.222 104.749C115.222 113.634 122.442 120.836 131.347 120.836Z" fill="#484916"/>
<path d="M204.38 120.836C213.286 120.836 220.505 113.634 220.505 104.749C220.505 95.864 213.286 88.6614 204.38 88.6614C195.475 88.6614 188.255 95.864 188.255 104.749C188.255 113.634 195.475 120.836 204.38 120.836Z" fill="#484916"/>
<path d="M111.632 126.278C110.897 125.696 117.469 119.207 130.919 119.207C144.369 119.207 147.603 125.654 147.603 125.654C147.603 125.654 132.137 142.471 111.632 126.283V126.278Z" fill="#5A5C1B"/>
<path d="M185.396 125.34C184.661 124.758 190.418 117.296 203.864 117.296C217.31 117.296 220.64 123.949 220.64 123.949C220.64 123.949 205.9 141.528 185.396 125.336V125.34Z" fill="#5A5C1B"/>
<path d="M118.817 98.4521C122.034 98.4521 124.641 95.8505 124.641 92.6413C124.641 89.4321 122.034 86.8306 118.817 86.8306C115.6 86.8306 112.993 89.4321 112.993 92.6413C112.993 95.8505 115.6 98.4521 118.817 98.4521Z" fill="white"/>
<path d="M190.002 97.1073C192.98 97.1073 195.394 94.699 195.394 91.7281C195.394 88.7572 192.98 86.3488 190.002 86.3488C187.024 86.3488 184.61 88.7572 184.61 91.7281C184.61 94.699 187.024 97.1073 190.002 97.1073Z" fill="white"/>
<path d="M150.416 147.393C150.416 147.393 153.973 160.422 168.359 160.008C182.746 159.593 184.61 145.94 184.61 145.94" stroke="#363611" stroke-width="6" stroke-miterlimit="10" stroke-linecap="round"/>
</svg>
