<svg width="265" height="306" viewBox="0 0 265 306" fill="none" xmlns="http://www.w3.org/2000/svg">
<path d="M127.933 305.513C197.719 305.513 254.292 293.04 254.292 277.654C254.292 262.268 197.719 249.795 127.933 249.795C58.1474 249.795 1.57471 262.268 1.57471 277.654C1.57471 293.04 58.1474 305.513 127.933 305.513Z" fill="#DFDFDF"/>
<path d="M210.171 235.939C199.992 218.556 179.416 211.716 164.215 220.66C149.013 229.604 145.91 250.409 155.115 268.327C167.998 293.4 186.328 293.438 201.529 284.494C216.73 275.55 220.346 253.322 210.167 235.939H210.171Z" fill="#0A0F14"/>
<path d="M126.35 259.568C129.265 239.626 117.49 221.384 100.046 218.821C82.6028 216.258 67.1917 230.539 63.1856 250.287C57.5755 277.923 71.8486 289.452 89.2922 292.015C106.736 294.578 123.436 279.506 126.35 259.568Z" fill="#0A0F14"/>
<path d="M264.845 129.578C264.845 202.296 206.031 261.247 133.481 261.247C60.9308 261.247 0.705566 204.805 0.705566 132.086C0.705566 59.3677 60.2253 0 132.775 0C205.325 0 264.845 56.8592 264.845 129.578Z" fill="#1E2E3D"/>
<path d="M46.4057 229.794C43.7476 227.533 42.8657 226.54 42.8657 226.54C47.3631 222.744 52.3895 218.745 53.5695 213.206C54.0776 210.82 54.2204 208.475 54.0398 206.232C54.3758 207.638 54.5815 209.128 54.6361 210.698C54.8713 217.596 51.3523 224.091 46.4057 229.794Z" fill="#0A0F14"/>
<path d="M53.4813 209.098C53.4813 223.211 37.0623 238.565 22.9865 238.565C8.91074 238.565 0 228.535 0 214.427C0 200.318 12.6648 184.189 26.7406 184.189C40.8164 184.189 53.4813 194.985 53.4813 209.098Z" fill="#1E2E3D"/>
<path d="M142.622 235.122C205.154 235.122 255.846 185.155 255.846 123.517C255.846 61.8789 205.154 11.9114 142.622 11.9114C80.0906 11.9114 29.3987 61.8789 29.3987 123.517C29.3987 185.155 80.0906 235.122 142.622 235.122Z" fill="#3B5A7A"/>
<path d="M244.248 104.484C244.248 126.307 231.314 142.222 209.621 142.222C187.928 142.222 173.545 126.371 171.055 104.56C168.582 82.8791 184.741 62.958 208.374 65.0457C229.983 66.9523 244.243 82.6602 244.243 104.484H244.248Z" fill="white"/>
<path d="M81.8135 104.412C81.8135 126.278 98.9883 143.897 120.807 143.897C142.627 143.897 157.714 128.34 160.217 106.487C162.703 84.7647 143.744 61.7626 117.889 64.8983C96.2336 67.5247 81.8177 82.5466 81.8177 104.416L81.8135 104.412Z" fill="white"/>
<path d="M205.591 132.131C219.89 130.269 229.925 116.756 228.006 101.947C226.087 87.1385 212.941 76.6427 198.643 78.504C184.345 80.3654 174.309 93.879 176.228 108.688C178.147 123.496 191.293 133.992 205.591 132.131Z" fill="#131E29"/>
<path d="M129.101 133.118C144.004 133.118 156.085 121.008 156.085 106.071C156.085 91.133 144.004 79.0237 129.101 79.0237C114.198 79.0237 102.117 91.133 102.117 106.071C102.117 121.008 114.198 133.118 129.101 133.118Z" fill="#131E29"/>
<path d="M131.347 121.396C140.253 121.396 147.472 114.159 147.472 105.233C147.472 96.3067 140.253 89.0705 131.347 89.0705C122.442 89.0705 115.222 96.3067 115.222 105.233C115.222 114.159 122.442 121.396 131.347 121.396Z" fill="#1E2E3D"/>
<path d="M204.38 121.396C213.286 121.396 220.505 114.159 220.505 105.233C220.505 96.3067 213.286 89.0705 204.38 89.0705C195.475 89.0705 188.255 96.3067 188.255 105.233C188.255 114.159 195.475 121.396 204.38 121.396Z" fill="#1E2E3D"/>
<path d="M111.632 126.863C110.897 126.278 117.469 119.758 130.919 119.758C144.369 119.758 147.603 126.236 147.603 126.236C147.603 126.236 132.137 143.131 111.632 126.867V126.863Z" fill="#283D52"/>
<path d="M185.396 125.92C184.661 125.335 190.418 117.839 203.864 117.839C217.31 117.839 220.64 124.523 220.64 124.523C220.64 124.523 205.9 142.184 185.396 125.916V125.92Z" fill="#283D52"/>
<path d="M118.817 98.9069C122.034 98.9069 124.641 96.2932 124.641 93.0691C124.641 89.8449 122.034 87.2312 118.817 87.2312C115.6 87.2312 112.993 89.8449 112.993 93.0691C112.993 96.2932 115.6 98.9069 118.817 98.9069Z" fill="white"/>
<path d="M190.002 97.5601C192.98 97.5601 195.394 95.1404 195.394 92.1557C195.394 89.171 192.98 86.7514 190.002 86.7514C187.024 86.7514 184.61 89.171 184.61 92.1557C184.61 95.1404 187.024 97.5601 190.002 97.5601Z" fill="white"/>
<path d="M150.416 148.076C150.416 148.076 153.973 161.166 168.359 160.75C182.746 160.333 184.61 146.616 184.61 146.616" stroke="#0A0F14" stroke-width="6" stroke-miterlimit="10" stroke-linecap="round"/>
</svg>
