<svg width="266" height="305" viewBox="0 0 266 305" fill="none" xmlns="http://www.w3.org/2000/svg">
<path d="M128.227 304.096C198.175 304.096 254.879 291.68 254.879 276.366C254.879 261.051 198.175 248.636 128.227 248.636C58.2785 248.636 1.57422 261.051 1.57422 276.366C1.57422 291.68 58.2785 304.096 128.227 304.096Z" fill="#DFDFDF"/>
<path d="M210.655 234.848C200.453 217.546 179.829 210.738 164.592 219.64C149.356 228.543 146.245 249.251 155.471 267.086C168.385 292.043 186.757 292.08 201.993 283.178C217.23 274.275 220.854 252.151 210.651 234.848H210.655Z" fill="#C3AE73"/>
<path d="M126.644 258.364C129.565 238.514 117.763 220.357 100.279 217.805C82.7949 215.254 67.3479 229.469 63.3326 249.126C57.7094 276.634 72.0157 288.109 89.4998 290.66C106.984 293.211 123.723 278.209 126.644 258.364Z" fill="#C3AE73"/>
<path d="M265.461 128.977C265.461 201.358 206.51 260.035 133.791 260.035C61.0723 260.035 0.707031 203.855 0.707031 131.473C0.707031 59.0922 60.3652 0 133.084 0C205.802 0 265.461 56.5953 265.461 128.977Z" fill="#EFDA99"/>
<path d="M46.5135 228.732C43.8492 226.482 42.9653 225.493 42.9653 225.493C47.4732 221.714 52.5113 217.734 53.694 212.221C54.2033 209.845 54.3464 207.512 54.1654 205.279C54.5022 206.678 54.7084 208.161 54.7631 209.724C54.9988 216.591 51.4717 223.055 46.5135 228.732Z" fill="#C3AE73"/>
<path d="M53.6056 208.132C53.6056 222.179 37.1485 237.462 23.04 237.462C8.93147 237.462 0 227.479 0 213.436C0 199.393 12.6943 183.339 26.8028 183.339C40.9113 183.339 53.6056 194.085 53.6056 208.132Z" fill="#EFDA99"/>
<path d="M142.95 234.031C205.627 234.031 256.437 184.296 256.437 122.944C256.437 61.5917 205.627 11.8561 142.95 11.8561C80.2727 11.8561 29.4629 61.5917 29.4629 122.944C29.4629 184.296 80.2727 234.031 142.95 234.031Z" fill="#F8E9BD"/>
<path d="M244.811 104.003C244.811 125.726 231.848 141.566 210.104 141.566C188.36 141.566 173.945 125.788 171.449 104.079C168.97 82.4987 185.166 62.67 208.854 64.748C230.513 66.6458 244.807 82.2809 244.807 104.003H244.811Z" fill="white"/>
<path d="M82.0037 103.928C82.0037 125.692 99.2184 143.229 121.088 143.229C142.958 143.229 158.081 127.745 160.59 105.993C163.081 84.3714 144.078 61.4761 118.163 64.5972C96.4573 67.2114 82.0079 82.1636 82.0079 103.932L82.0037 103.928Z" fill="white"/>
<path d="M206.065 131.515C220.396 129.662 230.455 116.211 228.532 101.472C226.608 86.7317 213.431 76.2846 199.1 78.1373C184.769 79.99 174.71 93.4409 176.633 108.181C178.556 122.921 191.733 133.368 206.065 131.515Z" fill="#613810"/>
<path d="M129.397 132.5C144.334 132.5 156.444 120.447 156.444 105.578C156.444 90.7101 144.334 78.657 129.397 78.657C114.459 78.657 102.35 90.7101 102.35 105.578C102.35 120.447 114.459 132.5 129.397 132.5Z" fill="#613810"/>
<path d="M131.649 120.832C140.575 120.832 147.811 113.63 147.811 104.745C147.811 95.8598 140.575 88.6572 131.649 88.6572C122.722 88.6572 115.486 95.8598 115.486 104.745C115.486 113.63 122.722 120.832 131.649 120.832Z" fill="#7A4614"/>
<path d="M204.856 120.832C213.782 120.832 221.018 113.63 221.018 104.745C221.018 95.8598 213.782 88.6572 204.856 88.6572C195.929 88.6572 188.693 95.8598 188.693 104.745C188.693 113.63 195.929 120.832 204.856 120.832Z" fill="#7A4614"/>
<path d="M111.892 126.274C111.155 125.692 117.742 119.203 131.223 119.203C144.705 119.203 147.946 125.65 147.946 125.65C147.946 125.65 132.444 142.467 111.892 126.279V126.274Z" fill="#925418"/>
<path d="M185.823 125.34C185.086 124.758 190.857 117.296 204.334 117.296C217.811 117.296 221.149 123.949 221.149 123.949C221.149 123.949 206.375 141.528 185.823 125.336V125.34Z" fill="#925418"/>
<path d="M119.089 98.4522C122.313 98.4522 124.927 95.8506 124.927 92.6414C124.927 89.4322 122.313 86.8306 119.089 86.8306C115.865 86.8306 113.251 89.4322 113.251 92.6414C113.251 95.8506 115.865 98.4522 119.089 98.4522Z" fill="white"/>
<path d="M190.444 97.1073C193.429 97.1073 195.848 94.699 195.848 91.7281C195.848 88.7572 193.429 86.3488 190.444 86.3488C187.459 86.3488 185.04 88.7572 185.04 91.7281C185.04 94.699 187.459 97.1073 190.444 97.1073Z" fill="white"/>
<path d="M150.762 147.389C150.762 147.389 154.327 160.418 168.747 160.004C183.167 159.589 185.035 145.935 185.035 145.935" stroke="#492A0C" stroke-width="6" stroke-miterlimit="10" stroke-linecap="round"/>
</svg>
