<svg width="265" height="305" viewBox="0 0 265 305" fill="none" xmlns="http://www.w3.org/2000/svg">
<path d="M127.929 304.1C197.715 304.1 254.288 291.685 254.288 276.37C254.288 261.055 197.715 248.64 127.929 248.64C58.1433 248.64 1.57056 261.055 1.57056 276.37C1.57056 291.685 58.1433 304.1 127.929 304.1Z" fill="#DFDFDF"/>
<path d="M210.167 234.848C199.988 217.546 179.412 210.738 164.21 219.64C149.009 228.543 145.906 249.251 155.111 267.086C167.994 292.043 186.324 292.08 201.525 283.178C216.726 274.275 220.341 252.151 210.162 234.848H210.167Z" fill="#4F79A3"/>
<path d="M126.35 258.364C129.265 238.514 117.49 220.357 100.046 217.805C82.6028 215.254 67.1917 229.469 63.1856 249.126C57.5755 276.634 71.8486 288.109 89.2922 290.66C106.736 293.211 123.436 278.209 126.35 258.364Z" fill="#4F79A3"/>
<path d="M264.845 128.977C264.845 201.358 206.031 260.035 133.481 260.035C60.9308 260.035 0.705566 203.855 0.705566 131.473C0.705566 59.0922 60.2253 0 132.775 0C205.325 0 264.845 56.5953 264.845 128.977Z" fill="#6698CC"/>
<path d="M46.4057 228.732C43.7476 226.482 42.8657 225.493 42.8657 225.493C47.3631 221.714 52.3895 217.734 53.5695 212.221C54.0776 209.845 54.2204 207.512 54.0398 205.279C54.3758 206.678 54.5815 208.161 54.6361 209.724C54.8713 216.591 51.3523 223.055 46.4057 228.732Z" fill="#4F79A3"/>
<path d="M53.4813 208.132C53.4813 222.179 37.0623 237.462 22.9865 237.462C8.91075 237.462 0 227.479 0 213.436C0 199.393 12.6648 183.339 26.7406 183.339C40.8164 183.339 53.4813 194.085 53.4813 208.132Z" fill="#6698CC"/>
<path d="M142.618 234.031C205.15 234.031 255.842 184.296 255.842 122.944C255.842 61.5917 205.15 11.8561 142.618 11.8561C80.0864 11.8561 29.3945 61.5917 29.3945 122.944C29.3945 184.296 80.0864 234.031 142.618 234.031Z" fill="#83ACD5"/>
<path d="M244.243 104.003C244.243 125.726 231.31 141.566 209.617 141.566C187.924 141.566 173.541 125.788 171.051 104.079C168.578 82.4987 184.736 62.67 208.37 64.748C229.979 66.6458 244.239 82.2809 244.239 104.003H244.243Z" fill="white"/>
<path d="M81.8135 103.928C81.8135 125.692 98.9883 143.229 120.807 143.229C142.627 143.229 157.714 127.745 160.217 105.993C162.703 84.3714 143.744 61.4761 117.889 64.5972C96.2336 67.2114 81.8177 82.1636 81.8177 103.932L81.8135 103.928Z" fill="white"/>
<path d="M205.587 131.515C219.885 129.662 229.92 116.211 228.002 101.471C226.083 86.7316 212.936 76.2845 198.638 78.1372C184.34 79.9899 174.305 93.4408 176.223 108.181C178.142 122.921 191.289 133.368 205.587 131.515Z" fill="#1E2E3D"/>
<path d="M129.097 132.5C144 132.5 156.081 120.447 156.081 105.578C156.081 90.7101 144 78.657 129.097 78.657C114.194 78.657 102.113 90.7101 102.113 105.578C102.113 120.447 114.194 132.5 129.097 132.5Z" fill="#1E2E3D"/>
<path d="M131.343 120.832C140.249 120.832 147.468 113.63 147.468 104.745C147.468 95.8598 140.249 88.6572 131.343 88.6572C122.438 88.6572 115.218 95.8598 115.218 104.745C115.218 113.63 122.438 120.832 131.343 120.832Z" fill="#283D52"/>
<path d="M204.38 120.832C213.286 120.832 220.505 113.63 220.505 104.745C220.505 95.8598 213.286 88.6572 204.38 88.6572C195.475 88.6572 188.255 95.8598 188.255 104.745C188.255 113.63 195.475 120.832 204.38 120.832Z" fill="#283D52"/>
<path d="M111.632 126.279C110.897 125.696 117.469 119.207 130.919 119.207C144.369 119.207 147.603 125.654 147.603 125.654C147.603 125.654 132.137 142.471 111.632 126.283V126.279Z" fill="#314B66"/>
<path d="M185.391 125.34C184.656 124.758 190.414 117.296 203.859 117.296C217.305 117.296 220.635 123.949 220.635 123.949C220.635 123.949 205.896 141.528 185.391 125.336V125.34Z" fill="#314B66"/>
<path d="M118.813 98.4522C122.03 98.4522 124.637 95.8506 124.637 92.6414C124.637 89.4322 122.03 86.8306 118.813 86.8306C115.596 86.8306 112.989 89.4322 112.989 92.6414C112.989 95.8506 115.596 98.4522 118.813 98.4522Z" fill="white"/>
<path d="M190.002 97.1073C192.98 97.1073 195.394 94.699 195.394 91.7281C195.394 88.7572 192.98 86.3488 190.002 86.3488C187.024 86.3488 184.61 88.7572 184.61 91.7281C184.61 94.699 187.024 97.1073 190.002 97.1073Z" fill="white"/>
<path d="M150.412 147.393C150.412 147.393 153.969 160.423 168.355 160.008C182.742 159.593 184.606 145.94 184.606 145.94" stroke="#1E2E3D" stroke-width="6" stroke-miterlimit="10" stroke-linecap="round"/>
</svg>
