<svg width="266" height="306" viewBox="0 0 266 306" fill="none" xmlns="http://www.w3.org/2000/svg">
<path d="M128.231 305.518C198.179 305.518 254.883 293.045 254.883 277.658C254.883 262.272 198.179 249.799 128.231 249.799C58.2827 249.799 1.57837 262.272 1.57837 277.658C1.57837 293.045 58.2827 305.518 128.231 305.518Z" fill="#DFDFDF"/>
<path d="M210.655 235.943C200.453 218.56 179.829 211.72 164.592 220.664C149.356 229.609 146.245 250.414 155.471 268.331C168.385 293.404 186.757 293.442 201.993 284.498C217.23 275.554 220.854 253.326 210.651 235.943H210.655Z" fill="#B8526E"/>
<path d="M126.644 259.568C129.565 239.626 117.763 221.384 100.279 218.821C82.7949 216.258 67.3479 230.539 63.3326 250.287C57.7094 277.923 72.0157 289.452 89.4998 292.015C106.984 294.578 123.723 279.506 126.644 259.568Z" fill="#B8526E"/>
<path d="M265.461 129.578C265.461 202.296 206.51 261.247 133.791 261.247C61.0723 261.247 0.707031 204.805 0.707031 132.086C0.707031 59.3677 60.3652 0 133.084 0C205.802 0 265.461 56.8592 265.461 129.578Z" fill="#E66789"/>
<path d="M46.5135 229.798C43.8492 227.538 42.9653 226.544 42.9653 226.544C47.4732 222.748 52.5113 218.749 53.694 213.21C54.2033 210.824 54.3464 208.479 54.1654 206.236C54.5022 207.642 54.7084 209.132 54.7631 210.702C54.9988 217.6 51.4717 224.095 46.5135 229.798Z" fill="#B8526E"/>
<path d="M53.6056 209.102C53.6056 223.215 37.1485 238.569 23.04 238.569C8.93147 238.569 0 228.539 0 214.431C0 200.322 12.6943 184.194 26.8028 184.194C40.9113 184.194 53.6056 194.99 53.6056 209.102Z" fill="#E66789"/>
<path d="M142.954 235.122C205.631 235.122 256.441 185.155 256.441 123.517C256.441 61.8789 205.631 11.9114 142.954 11.9114C80.2768 11.9114 29.467 61.8789 29.467 123.517C29.467 185.155 80.2768 235.122 142.954 235.122Z" fill="#EB85A1"/>
<path d="M244.816 104.488C244.816 126.312 231.852 142.226 210.108 142.226C188.365 142.226 173.949 126.375 171.453 104.564C168.974 82.8833 185.17 62.9622 208.858 65.0499C230.518 66.9565 244.811 82.6645 244.811 104.488H244.816Z" fill="white"/>
<path d="M82.0037 104.412C82.0037 126.278 99.2184 143.897 121.088 143.897C142.958 143.897 158.081 128.34 160.59 106.487C163.081 84.7647 144.078 61.7626 118.163 64.8983C96.4573 67.5247 82.0079 82.5466 82.0079 104.416L82.0037 104.412Z" fill="white"/>
<path d="M206.067 132.134C220.399 130.273 230.457 116.759 228.534 101.951C226.611 87.1422 213.434 76.6463 199.102 78.5077C184.771 80.369 174.712 93.8826 176.636 108.691C178.559 123.5 191.736 133.996 206.067 132.134Z" fill="#451F29"/>
<path d="M129.401 133.118C144.339 133.118 156.448 121.008 156.448 106.071C156.448 91.133 144.339 79.0237 129.401 79.0237C114.463 79.0237 102.354 91.133 102.354 106.071C102.354 121.008 114.463 133.118 129.401 133.118Z" fill="#451F29"/>
<path d="M131.649 121.4C140.575 121.4 147.811 114.164 147.811 105.237C147.811 96.3109 140.575 89.0747 131.649 89.0747C122.722 89.0747 115.486 96.3109 115.486 105.237C115.486 114.164 122.722 121.4 131.649 121.4Z" fill="#5C2A36"/>
<path d="M204.856 121.4C213.782 121.4 221.018 114.164 221.018 105.237C221.018 96.3109 213.782 89.0747 204.856 89.0747C195.929 89.0747 188.693 96.3109 188.693 105.237C188.693 114.164 195.929 121.4 204.856 121.4Z" fill="#5C2A36"/>
<path d="M111.892 126.867C111.155 126.282 117.742 119.762 131.223 119.762C144.705 119.762 147.946 126.24 147.946 126.24C147.946 126.24 132.444 143.135 111.892 126.871V126.867Z" fill="#733345"/>
<path d="M185.827 125.924C185.09 125.339 190.861 117.843 204.338 117.843C217.815 117.843 221.153 124.527 221.153 124.527C221.153 124.527 206.379 142.188 185.827 125.92V125.924Z" fill="#733345"/>
<path d="M119.093 98.9111C122.317 98.9111 124.931 96.2974 124.931 93.0733C124.931 89.8491 122.317 87.2354 119.093 87.2354C115.869 87.2354 113.255 89.8491 113.255 93.0733C113.255 96.2974 115.869 98.9111 119.093 98.9111Z" fill="white"/>
<path d="M190.444 97.56C193.429 97.56 195.848 95.1404 195.848 92.1557C195.848 89.171 193.429 86.7514 190.444 86.7514C187.459 86.7514 185.04 89.171 185.04 92.1557C185.04 95.1404 187.459 97.56 190.444 97.56Z" fill="white"/>
<path d="M150.766 148.08C150.766 148.08 154.331 161.17 168.751 160.754C183.171 160.337 185.04 146.62 185.04 146.62" stroke="#451F29" stroke-width="6" stroke-miterlimit="10" stroke-linecap="round"/>
</svg>
