<svg width="266" height="306" viewBox="0 0 266 306" fill="none" xmlns="http://www.w3.org/2000/svg">
<path d="M128.227 305.518C198.175 305.518 254.879 293.045 254.879 277.658C254.879 262.272 198.175 249.799 128.227 249.799C58.2785 249.799 1.57422 262.272 1.57422 277.658C1.57422 293.045 58.2785 305.518 128.227 305.518Z" fill="#DFDFDF"/>
<path d="M210.655 235.943C200.453 218.56 179.829 211.72 164.592 220.664C149.356 229.609 146.245 250.414 155.471 268.331C168.385 293.404 186.757 293.442 201.993 284.498C217.23 275.554 220.854 253.326 210.651 235.943H210.655Z" fill="#C27120"/>
<path d="M126.644 259.572C129.565 239.63 117.763 221.388 100.279 218.825C82.7949 216.262 67.3479 230.543 63.3326 250.291C57.7094 277.928 72.0157 289.456 89.4998 292.019C106.984 294.583 123.723 279.51 126.644 259.572Z" fill="#C27120"/>
<path d="M265.461 129.578C265.461 202.296 206.51 261.247 133.791 261.247C61.0723 261.247 0.707031 204.805 0.707031 132.086C0.707031 59.3677 60.3652 0 133.084 0C205.802 0 265.461 56.8592 265.461 129.578Z" fill="#F38D29"/>
<path d="M46.5135 229.798C43.8492 227.538 42.9653 226.544 42.9653 226.544C47.4732 222.748 52.5113 218.749 53.694 213.21C54.2033 210.824 54.3464 208.479 54.1654 206.236C54.5022 207.642 54.7084 209.132 54.7631 210.702C54.9988 217.6 51.4717 224.095 46.5135 229.798Z" fill="#C27120"/>
<path d="M53.6056 209.102C53.6056 223.215 37.1485 238.569 23.04 238.569C8.93147 238.569 0 228.539 0 214.431C0 200.322 12.6943 184.194 26.8028 184.194C40.9113 184.194 53.6056 194.99 53.6056 209.102Z" fill="#F38D29"/>
<path d="M142.954 235.122C205.631 235.122 256.441 185.155 256.441 123.517C256.441 61.8789 205.631 11.9114 142.954 11.9114C80.2771 11.9114 29.4673 61.8789 29.4673 123.517C29.4673 185.155 80.2771 235.122 142.954 235.122Z" fill="#F7B066"/>
<path d="M244.811 104.488C244.811 126.312 231.848 142.226 210.104 142.226C188.36 142.226 173.945 126.375 171.449 104.564C168.97 82.8833 185.166 62.9622 208.854 65.0499C230.513 66.9565 244.807 82.6645 244.807 104.488H244.811Z" fill="white"/>
<path d="M82.0037 104.416C82.0037 126.282 99.2184 143.901 121.088 143.901C142.958 143.901 158.081 128.345 160.59 106.492C163.081 84.769 144.078 61.7669 118.163 64.9025C96.4573 67.529 82.0079 82.5508 82.0079 104.421L82.0037 104.416Z" fill="white"/>
<path d="M206.066 132.135C220.397 130.274 230.456 116.76 228.533 101.952C226.609 87.1431 213.432 76.6473 199.101 78.5086C184.77 80.3699 174.711 93.8835 176.634 108.692C178.557 123.501 191.734 133.997 206.066 132.135Z" fill="#492A0C"/>
<path d="M129.397 133.122C144.334 133.122 156.444 121.012 156.444 106.075C156.444 91.1372 144.334 79.0279 129.397 79.0279C114.459 79.0279 102.35 91.1372 102.35 106.075C102.35 121.012 114.459 133.122 129.397 133.122Z" fill="#492A0C"/>
<path d="M131.649 121.4C140.575 121.4 147.811 114.164 147.811 105.237C147.811 96.3109 140.575 89.0747 131.649 89.0747C122.722 89.0747 115.486 96.3109 115.486 105.237C115.486 114.164 122.722 121.4 131.649 121.4Z" fill="#613810"/>
<path d="M204.856 121.4C213.782 121.4 221.018 114.164 221.018 105.237C221.018 96.3109 213.782 89.0747 204.856 89.0747C195.929 89.0747 188.693 96.3109 188.693 105.237C188.693 114.164 195.929 121.4 204.856 121.4Z" fill="#613810"/>
<path d="M111.892 126.867C111.155 126.282 117.742 119.762 131.223 119.762C144.705 119.762 147.946 126.24 147.946 126.24C147.946 126.24 132.444 143.135 111.892 126.871V126.867Z" fill="#7A4614"/>
<path d="M185.827 125.924C185.09 125.339 190.861 117.843 204.338 117.843C217.815 117.843 221.153 124.527 221.153 124.527C221.153 124.527 206.379 142.188 185.827 125.92V125.924Z" fill="#7A4614"/>
<path d="M119.093 98.9111C122.317 98.9111 124.931 96.2974 124.931 93.0733C124.931 89.8491 122.317 87.2354 119.093 87.2354C115.869 87.2354 113.255 89.8491 113.255 93.0733C113.255 96.2974 115.869 98.9111 119.093 98.9111Z" fill="white"/>
<path d="M190.444 97.5643C193.429 97.5643 195.848 95.1447 195.848 92.1599C195.848 89.1752 193.429 86.7556 190.444 86.7556C187.459 86.7556 185.04 89.1752 185.04 92.1599C185.04 95.1447 187.459 97.5643 190.444 97.5643Z" fill="white"/>
<path d="M150.766 148.081C150.766 148.081 154.331 161.17 168.751 160.754C183.171 160.337 185.04 146.62 185.04 146.62" stroke="#492A0C" stroke-width="6" stroke-miterlimit="10" stroke-linecap="round"/>
</svg>
