<svg width="430" height="431" viewBox="0 0 430 431" fill="none" xmlns="http://www.w3.org/2000/svg">
<path d="M218.275 372.398C288.061 372.398 344.634 359.925 344.634 344.539C344.634 329.153 288.061 316.68 218.275 316.68C148.489 316.68 91.9167 329.153 91.9167 344.539C91.9167 359.925 148.489 372.398 218.275 372.398Z" fill="#DFDFDF"/>
<path d="M300.513 302.824C290.334 285.441 269.758 278.601 254.557 287.545C239.355 296.489 236.252 317.294 245.457 335.212C258.34 360.285 276.67 360.323 291.871 351.379C307.072 342.435 310.688 320.207 300.509 302.824H300.513Z" fill="#0A0F14"/>
<path d="M216.692 326.453C219.607 306.511 207.832 288.269 190.388 285.706C172.945 283.143 157.534 297.424 153.528 317.172C147.918 344.808 162.191 356.337 179.634 358.9C197.078 361.463 213.778 346.391 216.692 326.453Z" fill="#0A0F14"/>
<path d="M355.187 196.463C355.187 269.181 296.373 328.132 223.823 328.132C151.273 328.132 91.0476 271.69 91.0476 198.971C91.0476 126.253 150.567 66.885 223.117 66.885C295.667 66.885 355.187 123.744 355.187 196.463Z" fill="#1E2E3D"/>
<path d="M136.748 296.679C134.09 294.418 133.208 293.425 133.208 293.425C137.705 289.629 142.732 285.63 143.912 280.091C144.42 277.705 144.562 275.36 144.382 273.117C144.718 274.523 144.924 276.013 144.978 277.583C145.213 284.481 141.694 290.976 136.748 296.679Z" fill="#0A0F14"/>
<path d="M143.823 275.983C143.823 290.096 127.404 305.45 113.329 305.45C99.2528 305.45 90.342 295.42 90.342 281.312C90.342 267.203 103.007 251.074 117.083 251.074C131.158 251.074 143.823 261.87 143.823 275.983Z" fill="#1E2E3D"/>
<path d="M232.964 302.007C295.496 302.007 346.188 252.04 346.188 190.402C346.188 128.764 295.496 78.7964 232.964 78.7964C170.433 78.7964 119.741 128.764 119.741 190.402C119.741 252.04 170.433 302.007 232.964 302.007Z" fill="#3B5A7A"/>
<path d="M334.59 171.369C334.59 193.192 321.656 209.107 299.963 209.107C278.27 209.107 263.887 193.256 261.397 171.445C258.924 149.764 275.083 129.843 298.716 131.931C320.325 133.837 334.586 149.545 334.586 171.369H334.59Z" fill="white"/>
<path d="M172.156 171.297C172.156 193.163 189.33 210.782 211.149 210.782C232.969 210.782 248.056 195.225 250.559 173.372C253.045 151.65 234.086 128.648 208.231 131.783C186.576 134.41 172.16 149.432 172.16 171.301L172.156 171.297Z" fill="white"/>
<path d="M295.934 199.016C310.232 197.154 320.267 183.641 318.348 168.832C316.429 154.024 303.283 143.528 288.985 145.389C274.687 147.25 264.651 160.764 266.57 175.573C268.489 190.381 281.635 200.877 295.934 199.016Z" fill="#131E29"/>
<path d="M219.443 200.003C234.346 200.003 246.427 187.893 246.427 172.956C246.427 158.018 234.346 145.909 219.443 145.909C204.54 145.909 192.459 158.018 192.459 172.956C192.459 187.893 204.54 200.003 219.443 200.003Z" fill="#131E29"/>
<path d="M221.689 188.281C230.595 188.281 237.814 181.044 237.814 172.118C237.814 163.192 230.595 155.956 221.689 155.956C212.784 155.956 205.564 163.192 205.564 172.118C205.564 181.044 212.784 188.281 221.689 188.281Z" fill="#1E2E3D"/>
<path d="M294.722 188.281C303.628 188.281 310.847 181.044 310.847 172.118C310.847 163.192 303.628 155.956 294.722 155.956C285.817 155.956 278.597 163.192 278.597 172.118C278.597 181.044 285.817 188.281 294.722 188.281Z" fill="#1E2E3D"/>
<path d="M201.974 193.748C201.239 193.163 207.811 186.643 221.261 186.643C234.711 186.643 237.945 193.121 237.945 193.121C237.945 193.121 222.479 210.016 201.974 193.752V193.748Z" fill="#283D52"/>
<path d="M275.738 192.805C275.003 192.22 280.76 184.724 294.206 184.724C307.652 184.724 310.982 191.408 310.982 191.408C310.982 191.408 296.242 209.069 275.738 192.801V192.805Z" fill="#283D52"/>
<path d="M209.159 165.792C212.376 165.792 214.983 163.178 214.983 159.954C214.983 156.73 212.376 154.116 209.159 154.116C205.942 154.116 203.335 156.73 203.335 159.954C203.335 163.178 205.942 165.792 209.159 165.792Z" fill="white"/>
<path d="M280.344 164.445C283.322 164.445 285.736 162.025 285.736 159.041C285.736 156.056 283.322 153.636 280.344 153.636C277.366 153.636 274.952 156.056 274.952 159.041C274.952 162.025 277.366 164.445 280.344 164.445Z" fill="white"/>
<path d="M240.758 214.961C240.758 214.961 244.315 228.051 258.701 227.635C273.088 227.218 274.952 213.501 274.952 213.501" stroke="#0A0F14" stroke-width="6" stroke-miterlimit="10" stroke-linecap="round"/>
<path d="M48.6018 24.4626H20.7651V52.364H48.6018V24.4626Z" fill="#131E29"/>
<path d="M48.6018 98.1367H20.7651V126.038H48.6018V98.1367Z" fill="#283D52"/>
<path d="M48.6018 61.2997H20.7651V89.201H48.6018V61.2997Z" fill="#1E2E3D"/>
<path d="M48.6018 303.998H20.7651V331.899H48.6018V303.998Z" fill="#0A0F14"/>
<path d="M48.6018 377.672H20.7651V405.574H48.6018V377.672Z" fill="#3B5A7A"/>
<path d="M48.6018 340.835H20.7651V368.736H48.6018V340.835Z" fill="#1E2E3D"/>
</svg>
